# Blender v2.92.0 OBJ File: 'wall1.blend'
# www.blender.org
mtllib wall1.mtl
o Cube.002_Cube.003
v -1.999999 0.000000 1.000001
v -1.999999 5.000000 1.000001
v -2.000001 0.000000 -0.999999
v -2.000001 5.000000 -0.999999
v 2.000001 0.000000 0.999999
v 2.000001 5.000000 0.999999
v 1.999999 0.000000 -1.000001
v 1.999999 5.000000 -1.000001
v 1.199999 0.000000 -1.000001
v 0.399999 0.000000 -1.000000
v -0.400001 0.000000 -1.000000
v -1.200001 0.000000 -0.999999
v -1.200001 5.000000 -0.999999
v -0.400001 5.000000 -1.000000
v 0.399999 5.000000 -1.000000
v 1.199999 5.000000 -1.000001
v -1.199999 0.000000 1.000001
v -0.399999 0.000000 1.000000
v 0.400001 0.000000 1.000000
v 1.200001 0.000000 0.999999
v 1.200001 5.000000 0.999999
v 0.400001 5.000000 1.000000
v -0.399999 5.000000 1.000000
v -1.199999 5.000000 1.000001
v -2.000000 0.000000 0.300001
v -2.000000 5.000000 0.300001
v 2.000000 0.000000 0.299999
v 2.000000 5.000000 0.299999
v 1.200000 5.000000 0.299999
v 0.400000 5.000000 0.300000
v -0.400000 5.000000 0.300000
v -1.200000 5.000000 0.300001
v -1.200000 0.000000 0.300001
v -0.400000 0.000000 0.300000
v 0.400000 0.000000 0.300000
v 1.200000 0.000000 0.299999
v 1.200001 5.800000 0.999999
v 0.400001 5.800000 1.000000
v -0.399999 5.800000 1.000000
v -1.199999 5.800000 1.000001
v -1.200000 5.800000 0.300001
v -0.400000 5.800000 0.300000
v 0.400000 5.800000 0.300000
v 1.200000 5.800000 0.299999
v 2.000000 6.000000 0.299999
v 2.000001 6.000000 0.999999
v -1.199999 6.000000 1.000001
v -1.999999 6.000000 1.000001
v 1.200001 6.000000 0.999999
v 0.400001 6.000000 1.000000
v -0.399999 6.000000 1.000000
v -2.000000 6.000000 0.300001
v -0.400000 6.000000 0.300000
v 0.400000 6.000000 0.300000
v 1.200000 6.000000 0.299999
v -1.200000 6.000000 0.300001
v 1.200001 6.800000 0.999999
v 0.400001 6.800000 1.000000
v -0.399999 6.800000 1.000000
v -1.199999 6.800000 1.000001
v -1.200000 6.800000 0.300001
v -0.400000 6.800000 0.300000
v 0.400000 6.800000 0.300000
v 1.200000 6.800000 0.299999
vt 0.982209 0.696100
vt 0.975036 0.700763
vt 0.975036 0.696100
vt 0.982209 0.706501
vt 0.975036 0.707936
vt 0.975036 0.706501
vt 0.982209 0.712599
vt 0.975036 0.715110
vt 0.975036 0.712599
vt 0.982209 0.720848
vt 0.975036 0.722283
vt 0.975036 0.720848
vt 0.973601 0.715110
vt 0.973601 0.712599
vt 0.969297 0.712599
vt 0.967862 0.715110
vt 0.967862 0.712599
vt 0.970731 0.712599
vt 0.969297 0.715110
vt 0.972166 0.712599
vt 0.970731 0.715110
vt 0.972166 0.715110
vt 0.982209 0.715110
vt 0.975036 0.716544
vt 0.982209 0.716544
vt 0.975036 0.717979
vt 0.982209 0.717979
vt 0.975036 0.719414
vt 0.982209 0.719414
vt 0.982209 0.700763
vt 0.975036 0.702197
vt 0.982209 0.702197
vt 0.975036 0.703632
vt 0.982209 0.703632
vt 0.975036 0.705067
vt 0.982209 0.705067
vt 0.973601 0.707936
vt 0.972166 0.707936
vt 0.970731 0.707936
vt 0.969297 0.707936
vt 0.967862 0.707936
vt 0.987948 0.707936
vt 0.986513 0.712599
vt 0.986513 0.707936
vt 0.985078 0.712599
vt 0.985078 0.707936
vt 0.983644 0.712599
vt 0.983644 0.707936
vt 0.982209 0.707936
vt 0.989383 0.707936
vt 0.987948 0.712599
vt 0.982209 0.693589
vt 0.975036 0.693589
vt 0.986513 0.712599
vt 0.982209 0.719414
vt 0.982209 0.719414
vt 0.982209 0.720848
vt 0.987948 0.712599
vt 0.987948 0.712599
vt 0.985078 0.712599
vt 0.982209 0.717979
vt 0.983644 0.712599
vt 0.987948 0.712599
vt 0.982209 0.693589
vt 0.982209 0.720848
vt 0.982209 0.719414
vt 0.982209 0.717979
vt 0.983644 0.712599
vt 0.982209 0.715110
vt 0.982209 0.712599
vt 0.986513 0.712599
vt 0.982209 0.720848
vt 0.983644 0.712599
vt 0.982209 0.717979
vt 0.982209 0.716544
vt 0.985078 0.712599
vt 0.985078 0.712599
vt 0.989383 0.712599
vt 0.982209 0.716544
vt 0.982209 0.716544
vt 0.982209 0.722283
vt 0.982209 0.722283
vt 0.982209 0.696100
vt 0.986513 0.712599
vt 0.989383 0.712599
vn -1.0000 0.0000 0.0000
vn -0.0000 0.0000 -1.0000
vn 1.0000 0.0000 -0.0000
vn 0.0000 0.0000 1.0000
vn 0.0000 -1.0000 0.0000
vn 0.0000 1.0000 0.0000
usemtl BigPalette
s off
f 26/1/1 3/2/1 25/3/1
f 16/4/2 7/5/2 9/6/2
f 28/7/3 5/8/3 27/9/3
f 24/10/4 1/11/4 17/12/4
f 27/9/5 20/13/5 36/14/5
f 33/15/5 1/16/5 25/17/5
f 34/18/5 17/19/5 33/15/5
f 35/20/5 18/21/5 34/18/5
f 36/14/5 19/22/5 35/20/5
f 6/23/4 20/24/4 5/8/4
f 21/25/4 19/26/4 20/24/4
f 22/27/4 18/28/4 19/26/4
f 23/29/4 17/12/4 18/28/4
f 4/30/2 12/31/2 3/2/2
f 13/32/2 11/33/2 12/31/2
f 14/34/2 10/35/2 11/33/2
f 15/36/2 9/6/2 10/35/2
f 9/37/5 35/20/5 10/38/5
f 10/38/5 34/18/5 11/39/5
f 11/39/5 33/15/5 12/40/5
f 12/40/5 25/17/5 3/41/5
f 13/42/6 31/43/6 14/44/6
f 14/44/6 30/45/6 15/46/6
f 15/46/6 29/47/6 16/48/6
f 16/48/6 28/7/6 8/49/6
f 4/50/6 32/51/6 13/42/6
f 7/5/5 36/14/5 9/37/5
f 8/49/3 27/9/3 7/5/3
f 2/52/1 25/3/1 1/53/1
f 42/54/3 59/55/3 39/56/3
f 40/57/1 61/58/1 41/59/1
f 31/43/2 54/60/2 30/45/2
f 23/29/4 40/57/4 24/10/4
f 21/25/4 38/61/4 22/27/4
f 30/45/2 44/62/2 29/47/2
f 32/51/2 42/54/2 31/43/2
f 56/63/6 48/64/6 47/65/6
f 54/60/6 51/66/6 50/67/6
f 55/68/6 46/69/6 45/70/6
f 62/71/6 60/72/6 59/55/6
f 64/73/6 58/74/6 57/75/6
f 29/47/2 45/70/2 28/7/2
f 38/61/1 63/76/1 43/77/1
f 28/7/3 46/69/3 6/23/3
f 26/78/2 56/63/2 32/51/2
f 44/62/3 57/75/3 37/79/3
f 37/79/4 58/74/4 38/61/4
f 6/23/4 49/80/4 21/25/4
f 39/56/4 60/72/4 40/57/4
f 41/59/2 62/71/2 42/54/2
f 24/10/4 48/81/4 2/82/4
f 23/29/4 50/67/4 51/66/4
f 26/1/1 48/64/1 52/83/1
f 43/77/2 64/73/2 44/62/2
f 26/1/1 4/30/1 3/2/1
f 16/4/2 8/49/2 7/5/2
f 28/7/3 6/23/3 5/8/3
f 24/10/4 2/82/4 1/11/4
f 27/9/5 5/8/5 20/13/5
f 33/15/5 17/19/5 1/16/5
f 34/18/5 18/21/5 17/19/5
f 35/20/5 19/22/5 18/21/5
f 36/14/5 20/13/5 19/22/5
f 6/23/4 21/25/4 20/24/4
f 21/25/4 22/27/4 19/26/4
f 22/27/4 23/29/4 18/28/4
f 23/29/4 24/10/4 17/12/4
f 4/30/2 13/32/2 12/31/2
f 13/32/2 14/34/2 11/33/2
f 14/34/2 15/36/2 10/35/2
f 15/36/2 16/4/2 9/6/2
f 9/37/5 36/14/5 35/20/5
f 10/38/5 35/20/5 34/18/5
f 11/39/5 34/18/5 33/15/5
f 12/40/5 33/15/5 25/17/5
f 13/42/6 32/51/6 31/43/6
f 14/44/6 31/43/6 30/45/6
f 15/46/6 30/45/6 29/47/6
f 16/48/6 29/47/6 28/7/6
f 4/50/6 26/78/6 32/51/6
f 7/5/5 27/9/5 36/14/5
f 8/49/3 28/7/3 27/9/3
f 2/52/1 26/1/1 25/3/1
f 42/54/3 62/71/3 59/55/3
f 40/57/1 60/72/1 61/58/1
f 31/43/2 53/84/2 54/60/2
f 23/29/4 39/56/4 40/57/4
f 21/25/4 37/79/4 38/61/4
f 30/45/2 43/77/2 44/62/2
f 32/51/2 41/59/2 42/54/2
f 56/63/6 52/85/6 48/64/6
f 54/60/6 53/84/6 51/66/6
f 55/68/6 49/80/6 46/69/6
f 62/71/6 61/58/6 60/72/6
f 64/73/6 63/76/6 58/74/6
f 29/47/2 55/68/2 45/70/2
f 38/61/1 58/74/1 63/76/1
f 28/7/3 45/70/3 46/69/3
f 26/78/2 52/85/2 56/63/2
f 44/62/3 64/73/3 57/75/3
f 37/79/4 57/75/4 58/74/4
f 6/23/4 46/69/4 49/80/4
f 39/56/4 59/55/4 60/72/4
f 41/59/2 61/58/2 62/71/2
f 24/10/4 47/65/4 48/81/4
f 23/29/4 22/27/4 50/67/4
f 26/1/1 2/52/1 48/64/1
f 43/77/2 63/76/2 64/73/2
