# Blender v2.92.0 OBJ File: 'fence_0.blend'
# www.blender.org
o Cube_Cube.029
v -0.315494 0.001890 0.046170
v -0.299459 0.487295 0.026673
v -0.315494 0.001890 -0.046170
v -0.299459 0.487295 -0.026673
v -0.218742 0.001890 0.046170
v -0.234777 0.487295 0.026673
v -0.218742 0.001890 -0.046170
v -0.234777 0.487295 -0.026673
v -0.308047 0.106412 0.039897
v -0.308047 0.106412 -0.039897
v -0.226189 0.106412 -0.039897
v -0.226189 0.106412 0.039897
v -0.314810 0.452333 0.039897
v -0.314810 0.452333 -0.039897
v -0.219426 0.452333 -0.039897
v -0.219426 0.452333 0.039897
v -0.236026 0.130289 0.019510
v -0.236026 0.222196 0.019510
v -0.236026 0.130289 -0.019510
v -0.236026 0.222196 -0.019510
v 0.265326 0.130289 0.019510
v 0.265326 0.222196 0.019510
v 0.265326 0.130289 -0.019510
v 0.265326 0.222196 -0.019510
v 0.098208 0.123118 -0.019510
v -0.068909 0.137535 -0.019510
v -0.068909 0.229442 -0.019510
v 0.098208 0.215025 -0.019510
v -0.068909 0.137535 0.019510
v 0.098208 0.123118 0.019510
v 0.098208 0.215025 0.019510
v -0.068909 0.229442 0.019510
v -0.236026 0.262952 0.019510
v -0.236026 0.354859 0.019510
v -0.236026 0.262952 -0.019510
v -0.236026 0.354859 -0.019510
v 0.265326 0.262952 0.019510
v 0.265326 0.354859 0.019510
v 0.265326 0.262952 -0.019510
v 0.265326 0.354859 -0.019510
v 0.098208 0.255781 -0.019510
v -0.068909 0.270198 -0.019510
v -0.068909 0.362105 -0.019510
v 0.098208 0.347688 -0.019510
v -0.068909 0.270198 0.019510
v 0.098208 0.255781 0.019510
v 0.098208 0.347688 0.019510
v -0.068909 0.362105 0.019510
v 0.235752 0.001889 0.046170
v 0.251787 0.487295 0.026673
v 0.235752 0.001889 -0.046170
v 0.251787 0.487295 -0.026673
v 0.332504 0.001889 0.046170
v 0.316469 0.487295 0.026673
v 0.332504 0.001889 -0.046170
v 0.316469 0.487295 -0.026673
v 0.243199 0.106412 0.039897
v 0.243199 0.106412 -0.039897
v 0.325057 0.106412 -0.039897
v 0.325057 0.106412 0.039897
v 0.236436 0.452333 0.039897
v 0.236436 0.452333 -0.039897
v 0.331820 0.452333 -0.039897
v 0.331820 0.452333 0.039897
vt 0.865072 0.906790
vt 0.864813 0.906519
vt 0.864813 0.905424
vt 0.865072 0.905153
vt 0.863718 0.905424
vt 0.863458 0.905153
vt 0.863718 0.906519
vt 0.863458 0.906790
vt 0.936609 0.904293
vt 0.938247 0.904293
vt 0.938247 0.906188
vt 0.936609 0.906188
vt 0.941145 0.905930
vt 0.941506 0.906056
vt 0.941506 0.907442
vt 0.941145 0.907568
vt 0.941145 0.906188
vt 0.940784 0.906059
vt 0.940784 0.904421
vt 0.941145 0.904293
vt 0.939630 0.911358
vt 0.939991 0.911484
vt 0.939991 0.912869
vt 0.939630 0.912995
vt 0.938125 0.909978
vt 0.937763 0.909849
vt 0.937763 0.908211
vt 0.938125 0.908083
vt 0.942670 0.905942
vt 0.942670 0.907556
vt 0.939630 0.906059
vt 0.939630 0.904421
vt 0.941155 0.911369
vt 0.941155 0.912984
vt 0.936609 0.909849
vt 0.936609 0.908211
vt 0.904808 0.906870
vt 0.904647 0.906870
vt 0.904647 0.906453
vt 0.904808 0.906453
vt 0.903311 0.904244
vt 0.903149 0.904244
vt 0.903131 0.902770
vt 0.903292 0.902769
vt 0.904854 0.905163
vt 0.904693 0.905163
vt 0.904693 0.904745
vt 0.904854 0.904745
vt 0.903472 0.904244
vt 0.903311 0.904244
vt 0.903330 0.902769
vt 0.903491 0.902770
vt 0.901442 0.905719
vt 0.901442 0.907193
vt 0.901024 0.907193
vt 0.901024 0.905719
vt 0.902277 0.905719
vt 0.902277 0.907193
vt 0.901859 0.907193
vt 0.901859 0.905719
vt 0.902277 0.902769
vt 0.902277 0.904244
vt 0.901859 0.904244
vt 0.901859 0.902769
vt 0.901442 0.902769
vt 0.901442 0.904244
vt 0.901024 0.904244
vt 0.901024 0.902769
vt 0.903472 0.907194
vt 0.903311 0.907193
vt 0.903330 0.905719
vt 0.903491 0.905719
vt 0.903311 0.907193
vt 0.903149 0.907194
vt 0.903130 0.905719
vt 0.903292 0.905719
vt 0.904854 0.905580
vt 0.904693 0.905580
vt 0.904693 0.905163
vt 0.904854 0.905163
vt 0.903671 0.904244
vt 0.903510 0.904244
vt 0.903491 0.902770
vt 0.903652 0.902769
vt 0.904854 0.905998
vt 0.904693 0.905998
vt 0.904693 0.905580
vt 0.904854 0.905580
vt 0.903833 0.904244
vt 0.903671 0.904244
vt 0.903690 0.902769
vt 0.903852 0.902770
vt 0.901859 0.905719
vt 0.901859 0.907193
vt 0.901442 0.907193
vt 0.901442 0.905719
vt 0.901024 0.905719
vt 0.901024 0.907193
vt 0.900607 0.907193
vt 0.900607 0.905719
vt 0.901024 0.902769
vt 0.901024 0.904244
vt 0.900607 0.904244
vt 0.900607 0.902769
vt 0.901859 0.902769
vt 0.901859 0.904244
vt 0.901442 0.904244
vt 0.901442 0.902769
vt 0.903833 0.907194
vt 0.903671 0.907193
vt 0.903690 0.905719
vt 0.903852 0.905719
vt 0.903671 0.907193
vt 0.903510 0.907194
vt 0.903491 0.905719
vt 0.903652 0.905719
vt 0.865072 0.908428
vt 0.864813 0.908157
vt 0.864813 0.907062
vt 0.865072 0.906790
vt 0.863718 0.907062
vt 0.863458 0.906790
vt 0.863718 0.908157
vt 0.863458 0.908428
vt 0.936609 0.906188
vt 0.938247 0.906188
vt 0.938247 0.908083
vt 0.936609 0.908083
vt 0.936609 0.911872
vt 0.936970 0.911999
vt 0.936970 0.913384
vt 0.936609 0.913510
vt 0.938125 0.911872
vt 0.937763 0.911744
vt 0.937763 0.910106
vt 0.938125 0.909978
vt 0.941145 0.904293
vt 0.941506 0.904419
vt 0.941506 0.905804
vt 0.941145 0.905930
vt 0.941145 0.908083
vt 0.940784 0.907954
vt 0.940784 0.906316
vt 0.941145 0.906188
vt 0.938134 0.911884
vt 0.938134 0.913498
vt 0.936609 0.911744
vt 0.936609 0.910106
vt 0.942670 0.904304
vt 0.942670 0.905919
vt 0.939630 0.907954
vt 0.939630 0.906316
vn -0.9156 0.4020 0.0000
vn 0.0000 0.3538 -0.9353
vn 0.9156 0.4020 0.0000
vn 0.0000 0.3538 0.9353
vn 0.0000 -1.0000 0.0000
vn 0.0000 1.0000 0.0000
vn 0.0000 0.0599 0.9982
vn 0.9975 0.0711 0.0000
vn 0.0000 0.0599 -0.9982
vn -0.9975 0.0711 0.0000
vn 0.0000 0.0000 1.0000
vn 0.9998 -0.0195 0.0000
vn 0.0000 -0.0000 -1.0000
vn -0.9998 -0.0195 0.0000
vn -1.0000 -0.0000 0.0000
vn 1.0000 -0.0000 0.0000
vn 0.0429 -0.9991 0.0000
vn -0.0433 0.9991 0.0000
vn -0.0429 0.9991 0.0000
vn 0.0860 0.9963 0.0000
vn 0.0433 -0.9991 0.0000
vn -0.0860 -0.9963 0.0000
s 1
f 13/1/1 2/2/1 4/3/1 14/4/1
f 14/4/2 4/3/2 8/5/2 15/6/2
f 15/6/3 8/5/3 6/7/3 16/8/3
f 16/8/4 6/7/4 2/2/4 13/1/4
f 3/9/5 7/10/5 5/11/5 1/12/5
f 8/5/6 4/3/6 2/2/6 6/7/6
f 5/13/7 12/14/7 9/15/7 1/16/7
f 7/17/8 11/18/8 12/19/8 5/20/8
f 3/21/9 10/22/9 11/23/9 7/24/9
f 1/25/10 9/26/10 10/27/10 3/28/10
f 12/14/11 16/29/11 13/30/11 9/15/11
f 11/18/12 15/31/12 16/32/12 12/19/12
f 10/22/13 14/33/13 15/34/13 11/23/13
f 9/26/14 13/35/14 14/36/14 10/27/14
f 17/37/15 18/38/15 20/39/15 19/40/15
f 25/41/13 28/42/13 24/43/13 23/44/13
f 23/45/16 24/46/16 22/47/16 21/48/16
f 29/49/11 32/50/11 18/51/11 17/52/11
f 25/53/17 23/54/17 21/55/17 30/56/17
f 27/57/18 20/58/18 18/59/18 32/60/18
f 24/61/19 28/62/19 31/63/19 22/64/19
f 28/62/20 27/57/20 32/60/20 31/63/20
f 19/65/21 26/66/21 29/67/21 17/68/21
f 26/66/22 25/53/22 30/56/22 29/67/22
f 21/69/11 22/70/11 31/71/11 30/72/11
f 30/72/11 31/71/11 32/50/11 29/49/11
f 19/73/13 20/74/13 27/75/13 26/76/13
f 26/76/13 27/75/13 28/42/13 25/41/13
f 33/77/15 34/78/15 36/79/15 35/80/15
f 41/81/13 44/82/13 40/83/13 39/84/13
f 39/85/16 40/86/16 38/87/16 37/88/16
f 45/89/11 48/90/11 34/91/11 33/92/11
f 41/93/17 39/94/17 37/95/17 46/96/17
f 43/97/18 36/98/18 34/99/18 48/100/18
f 40/101/19 44/102/19 47/103/19 38/104/19
f 44/102/20 43/97/20 48/100/20 47/103/20
f 35/105/21 42/106/21 45/107/21 33/108/21
f 42/106/22 41/93/22 46/96/22 45/107/22
f 37/109/11 38/110/11 47/111/11 46/112/11
f 46/112/11 47/111/11 48/90/11 45/89/11
f 35/113/13 36/114/13 43/115/13 42/116/13
f 42/116/13 43/115/13 44/82/13 41/81/13
f 61/117/1 50/118/1 52/119/1 62/120/1
f 62/120/2 52/119/2 56/121/2 63/122/2
f 63/122/3 56/121/3 54/123/3 64/124/3
f 64/124/4 54/123/4 50/118/4 61/117/4
f 51/125/5 55/126/5 53/127/5 49/128/5
f 56/121/6 52/119/6 50/118/6 54/123/6
f 53/129/7 60/130/7 57/131/7 49/132/7
f 55/133/8 59/134/8 60/135/8 53/136/8
f 51/137/9 58/138/9 59/139/9 55/140/9
f 49/141/10 57/142/10 58/143/10 51/144/10
f 60/130/11 64/145/11 61/146/11 57/131/11
f 59/134/12 63/147/12 64/148/12 60/135/12
f 58/138/13 62/149/13 63/150/13 59/139/13
f 57/142/14 61/151/14 62/152/14 58/143/14
