# Blender v2.92.0 OBJ File: 'fence_0_partial.blend'
# www.blender.org
o Cube.001_Cube.030
v 0.235752 0.001890 0.046170
v 0.251787 0.487295 0.026673
v 0.235752 0.001889 -0.046170
v 0.251787 0.487295 -0.026673
v 0.332504 0.001890 0.046170
v 0.316469 0.487295 0.026673
v 0.332504 0.001889 -0.046170
v 0.316469 0.487295 -0.026673
v 0.243199 0.106412 0.039897
v 0.243199 0.106412 -0.039897
v 0.325057 0.106412 -0.039897
v 0.325057 0.106412 0.039897
v 0.236436 0.452333 0.039897
v 0.236436 0.452333 -0.039897
v 0.331820 0.452333 -0.039897
v 0.331820 0.452333 0.039897
v -0.236026 0.130289 0.019510
v -0.236026 0.222196 0.019510
v -0.236026 0.130289 -0.019510
v -0.236026 0.222196 -0.019510
v 0.265326 0.130289 0.019510
v 0.265326 0.222196 0.019510
v 0.265326 0.130289 -0.019510
v 0.265326 0.222196 -0.019510
v 0.098208 0.123118 -0.019510
v -0.068909 0.137535 -0.019510
v -0.068909 0.229442 -0.019510
v 0.098208 0.215025 -0.019510
v -0.068909 0.137535 0.019510
v 0.098208 0.123118 0.019510
v 0.098208 0.215025 0.019510
v -0.068909 0.229442 0.019510
v -0.236026 0.262952 0.019510
v -0.236026 0.354859 0.019510
v -0.236026 0.262952 -0.019510
v -0.236026 0.354859 -0.019510
v 0.265326 0.262952 0.019510
v 0.265326 0.354859 0.019510
v 0.265326 0.262952 -0.019510
v 0.265326 0.354859 -0.019510
v 0.098208 0.255781 -0.019510
v -0.068909 0.270198 -0.019510
v -0.068909 0.362105 -0.019510
v 0.098208 0.347688 -0.019510
v -0.068909 0.270198 0.019510
v 0.098208 0.255781 0.019510
v 0.098208 0.347688 0.019510
v -0.068909 0.362105 0.019510
vt 0.863917 0.905159
vt 0.862480 0.903659
vt 0.862480 0.897605
vt 0.863917 0.896104
vt 0.856426 0.897605
vt 0.854989 0.896104
vt 0.856426 0.903659
vt 0.854989 0.905159
vt 0.096330 0.662764
vt 0.109774 0.662764
vt 0.109774 0.678322
vt 0.096330 0.678322
vt 0.946320 0.894924
vt 0.947884 0.895475
vt 0.947884 0.901528
vt 0.946320 0.902078
vt 0.939745 0.912607
vt 0.938174 0.912044
vt 0.938174 0.904890
vt 0.939745 0.904328
vt 0.946320 0.887770
vt 0.947884 0.888321
vt 0.947884 0.894373
vt 0.946320 0.894924
vt 0.939745 0.904328
vt 0.938174 0.903765
vt 0.938174 0.896611
vt 0.939745 0.896049
vt 0.952977 0.894975
vt 0.952977 0.902028
vt 0.933115 0.912044
vt 0.933115 0.904890
vt 0.952977 0.887820
vt 0.952977 0.894873
vt 0.933115 0.903765
vt 0.933115 0.896611
vt 0.907201 0.904697
vt 0.906692 0.904697
vt 0.906692 0.903380
vt 0.907201 0.903380
vt 0.906122 0.900010
vt 0.905612 0.900012
vt 0.905553 0.895359
vt 0.906062 0.895357
vt 0.907201 0.902062
vt 0.906692 0.902062
vt 0.906692 0.900745
vt 0.907201 0.900745
vt 0.905492 0.900012
vt 0.904983 0.900010
vt 0.905043 0.895357
vt 0.905553 0.895359
vt 0.900402 0.904664
vt 0.900402 0.909317
vt 0.899085 0.909317
vt 0.899085 0.904664
vt 0.897767 0.904664
vt 0.897767 0.909317
vt 0.896450 0.909317
vt 0.896450 0.904664
vt 0.897767 0.895357
vt 0.897767 0.900010
vt 0.896450 0.900010
vt 0.896450 0.895357
vt 0.900402 0.895357
vt 0.900402 0.900010
vt 0.899085 0.900010
vt 0.899085 0.895357
vt 0.905493 0.909319
vt 0.904983 0.909317
vt 0.905043 0.904664
vt 0.905553 0.904666
vt 0.906122 0.909317
vt 0.905612 0.909319
vt 0.905553 0.904666
vt 0.906062 0.904664
vt 0.907201 0.906015
vt 0.906692 0.906015
vt 0.906692 0.904697
vt 0.907201 0.904697
vt 0.904983 0.900010
vt 0.904473 0.900012
vt 0.904414 0.895359
vt 0.904923 0.895357
vt 0.907201 0.903380
vt 0.906692 0.903380
vt 0.906692 0.902062
vt 0.907201 0.902062
vt 0.906632 0.900012
vt 0.906122 0.900010
vt 0.906182 0.895357
vt 0.906692 0.895359
vt 0.899085 0.904664
vt 0.899085 0.909317
vt 0.897767 0.909317
vt 0.897767 0.904664
vt 0.901719 0.904664
vt 0.901719 0.909317
vt 0.900402 0.909317
vt 0.900402 0.904664
vt 0.901719 0.895357
vt 0.901719 0.900010
vt 0.900402 0.900010
vt 0.900402 0.895357
vt 0.899085 0.895357
vt 0.899085 0.900010
vt 0.897767 0.900010
vt 0.897767 0.895357
vt 0.906632 0.909319
vt 0.906123 0.909317
vt 0.906182 0.904664
vt 0.906692 0.904666
vt 0.904983 0.909317
vt 0.904473 0.909319
vt 0.904413 0.904666
vt 0.904923 0.904664
vn -0.9156 0.4020 0.0000
vn 0.0000 0.3538 -0.9353
vn 0.9156 0.4020 0.0000
vn 0.0000 0.3538 0.9353
vn 0.0000 -1.0000 0.0000
vn 0.0000 1.0000 0.0000
vn 0.0000 0.0599 0.9982
vn 0.9975 0.0711 -0.0000
vn 0.0000 0.0599 -0.9982
vn -0.9975 0.0711 -0.0000
vn 0.0000 0.0000 1.0000
vn 0.9998 -0.0195 0.0000
vn 0.0000 -0.0000 -1.0000
vn -0.9998 -0.0195 0.0000
vn -1.0000 -0.0000 0.0000
vn 1.0000 -0.0000 0.0000
vn 0.0429 -0.9991 0.0000
vn -0.0433 0.9991 -0.0000
vn -0.0429 0.9991 -0.0000
vn 0.0860 0.9963 0.0000
vn 0.0433 -0.9991 0.0000
vn -0.0860 -0.9963 0.0000
s 1
f 13/1/1 2/2/1 4/3/1 14/4/1
f 14/4/2 4/3/2 8/5/2 15/6/2
f 15/6/3 8/5/3 6/7/3 16/8/3
f 16/8/4 6/7/4 2/2/4 13/1/4
f 3/9/5 7/10/5 5/11/5 1/12/5
f 8/5/6 4/3/6 2/2/6 6/7/6
f 5/13/7 12/14/7 9/15/7 1/16/7
f 7/17/8 11/18/8 12/19/8 5/20/8
f 3/21/9 10/22/9 11/23/9 7/24/9
f 1/25/10 9/26/10 10/27/10 3/28/10
f 12/14/11 16/29/11 13/30/11 9/15/11
f 11/18/12 15/31/12 16/32/12 12/19/12
f 10/22/13 14/33/13 15/34/13 11/23/13
f 9/26/14 13/35/14 14/36/14 10/27/14
f 17/37/15 18/38/15 20/39/15 19/40/15
f 25/41/13 28/42/13 24/43/13 23/44/13
f 23/45/16 24/46/16 22/47/16 21/48/16
f 29/49/11 32/50/11 18/51/11 17/52/11
f 25/53/17 23/54/17 21/55/17 30/56/17
f 27/57/18 20/58/18 18/59/18 32/60/18
f 24/61/19 28/62/19 31/63/19 22/64/19
f 28/62/20 27/57/20 32/60/20 31/63/20
f 19/65/21 26/66/21 29/67/21 17/68/21
f 26/66/22 25/53/22 30/56/22 29/67/22
f 21/69/11 22/70/11 31/71/11 30/72/11
f 30/72/11 31/71/11 32/50/11 29/49/11
f 19/73/13 20/74/13 27/75/13 26/76/13
f 26/76/13 27/75/13 28/42/13 25/41/13
f 33/77/15 34/78/15 36/79/15 35/80/15
f 41/81/13 44/82/13 40/83/13 39/84/13
f 39/85/16 40/86/16 38/87/16 37/88/16
f 45/89/11 48/90/11 34/91/11 33/92/11
f 41/93/17 39/94/17 37/95/17 46/96/17
f 43/97/18 36/98/18 34/99/18 48/100/18
f 40/101/19 44/102/19 47/103/19 38/104/19
f 44/102/20 43/97/20 48/100/20 47/103/20
f 35/105/21 42/106/21 45/107/21 33/108/21
f 42/106/22 41/93/22 46/96/22 45/107/22
f 37/109/11 38/110/11 47/111/11 46/112/11
f 46/112/11 47/111/11 48/90/11 45/89/11
f 35/113/13 36/114/13 43/115/13 42/116/13
f 42/116/13 43/115/13 44/82/13 41/81/13
