# Blender v2.92.0 OBJ File: 'signpost_0.blend'
# www.blender.org
mtllib aSignPost0.mtl
o Signpost_01_Mesh.024
v -0.081627 -0.000000 0.101084
v 0.091627 -0.000000 0.091084
v -0.091627 0.000000 -0.091084
v 0.081627 0.000000 -0.101084
v 0.000000 1.083936 0.012606
v -0.085906 0.977158 0.082947
v 0.074672 0.976882 0.094985
v 0.085906 0.977158 -0.082947
v -0.074672 0.976882 -0.094985
v -0.064692 0.282023 0.101084
v 0.083145 0.282023 0.091084
v 0.073145 0.282023 -0.101084
v -0.074692 0.282023 -0.091084
v -0.074546 0.681730 -0.086064
v 0.088080 0.681730 -0.076064
v 0.078080 0.681730 0.088223
v -0.084546 0.681730 0.078223
v -0.091627 -0.000000 0.091084
v 0.081627 -0.000000 0.101084
v -0.081627 0.000000 -0.101084
v 0.091627 0.000000 -0.091084
v 0.010719 1.084950 0.000000
v -0.000000 1.083936 -0.012605
v -0.010719 1.084950 0.000000
v -0.091380 0.958960 0.090626
v -0.081377 0.958966 0.100636
v -0.074672 0.976882 0.094985
v 0.081502 0.958966 0.100636
v 0.091503 0.958957 0.090626
v 0.085906 0.977158 0.082947
v 0.091503 0.958957 -0.090547
v 0.081503 0.958970 -0.100561
v 0.074672 0.976882 -0.094985
v -0.081377 0.958970 -0.100561
v -0.091380 0.958960 -0.090547
v -0.085906 0.977158 -0.082947
v -0.074692 0.282023 0.091084
v 0.073145 0.282023 0.101084
v 0.083145 0.282023 -0.091084
v -0.064692 0.282023 -0.101084
v -0.084546 0.681730 -0.076064
v 0.078080 0.681730 -0.086064
v 0.088080 0.681730 0.078223
v -0.074546 0.681730 0.088223
v -0.246079 0.807142 0.097850
v 0.203103 0.752467 0.097850
v 0.196777 0.860260 0.093782
v 0.203103 0.752467 0.119243
v -0.244915 0.802046 0.119243
v 0.196916 0.864435 0.119243
v -0.167820 0.858099 0.123311
v -0.170839 0.735153 0.119243
v -0.167820 0.736495 0.093782
v -0.171127 0.859798 0.097850
v 0.055443 0.742730 0.119243
v 0.055443 0.868250 0.123311
v 0.055443 0.872319 0.097850
v 0.055443 0.746799 0.093782
v 0.164095 0.873246 0.119243
v 0.164095 0.739099 0.123311
v 0.164095 0.735030 0.097850
v 0.164095 0.869177 0.093782
v -0.241459 0.804407 0.093782
v -0.244915 0.802046 0.097850
v 0.196834 0.740604 0.097850
v 0.196777 0.744721 0.093782
v 0.196916 0.864435 0.097850
v 0.206177 0.852361 0.097850
v 0.196777 0.744721 0.123311
v 0.196834 0.740604 0.119243
v -0.241459 0.804407 0.123311
v -0.246079 0.807142 0.119243
v 0.196777 0.860260 0.123311
v 0.206177 0.852361 0.119243
v -0.163755 0.862352 0.119243
v -0.171127 0.859798 0.119243
v -0.163756 0.732614 0.119243
v -0.167820 0.736495 0.123311
v -0.163756 0.732614 0.097850
v -0.170839 0.735153 0.097850
v -0.163755 0.862352 0.097850
v -0.167820 0.858099 0.093782
v 0.055443 0.746799 0.123311
v 0.055443 0.872319 0.119243
v 0.055443 0.868250 0.093782
v 0.055443 0.742730 0.097850
v 0.164095 0.869177 0.123311
v 0.164095 0.735030 0.119243
v 0.164095 0.739099 0.093782
v 0.164095 0.873246 0.097850
v -0.103339 0.576938 0.258503
v -0.103339 0.522263 -0.190679
v -0.107407 0.630056 -0.184352
v -0.081946 0.522263 -0.190679
v -0.081946 0.571842 0.257340
v -0.081946 0.634231 -0.184492
v -0.077878 0.617517 0.180244
v -0.081946 0.504948 0.183264
v -0.107407 0.506290 0.180244
v -0.103339 0.619216 0.183551
v -0.081946 0.496535 -0.043019
v -0.077878 0.631352 -0.043019
v -0.103339 0.635421 -0.043019
v -0.107407 0.500603 -0.043019
v -0.081946 0.639502 -0.151671
v -0.077878 0.508895 -0.151671
v -0.103339 0.504826 -0.151671
v -0.107407 0.635434 -0.151671
v -0.107407 0.574203 0.253884
v -0.103339 0.571842 0.257340
v -0.103339 0.510399 -0.184410
v -0.107407 0.514517 -0.184352
v -0.103339 0.634231 -0.184492
v -0.103339 0.622157 -0.193752
v -0.077878 0.514517 -0.184352
v -0.081946 0.510399 -0.184410
v -0.077878 0.574203 0.253884
v -0.081946 0.576938 0.258503
v -0.077878 0.630056 -0.184352
v -0.081946 0.622157 -0.193752
v -0.081946 0.621771 0.176180
v -0.081946 0.619216 0.183551
v -0.081946 0.502409 0.176180
v -0.077878 0.506290 0.180244
v -0.103339 0.502409 0.176180
v -0.103339 0.504948 0.183264
v -0.103339 0.621771 0.176180
v -0.107407 0.617517 0.180244
v -0.077878 0.500603 -0.043019
v -0.081946 0.635421 -0.043019
v -0.107407 0.631352 -0.043019
v -0.103339 0.496535 -0.043019
v -0.077878 0.635434 -0.151671
v -0.081946 0.504826 -0.151671
v -0.107407 0.508895 -0.151671
v -0.103339 0.639502 -0.151671
vt 0.061611 0.664221
vt 0.063469 0.664265
vt 0.061709 0.667501
vt 0.063632 0.664269
vt 0.065698 0.664347
vt 0.063485 0.667530
vt 0.065859 0.664355
vt 0.067722 0.664460
vt 0.065771 0.667593
vt 0.059379 0.664250
vt 0.061448 0.664218
vt 0.059406 0.667521
vt 0.093905 0.670650
vt 0.097404 0.669000
vt 0.097228 0.672649
vt 0.107325 0.668964
vt 0.106897 0.672809
vt 0.103462 0.670465
vt 0.110940 0.670850
vt 0.107327 0.672797
vt 0.107729 0.668975
vt 0.097651 0.672640
vt 0.097795 0.668961
vt 0.101388 0.670501
vt 0.063321 0.667526
vt 0.063361 0.672263
vt 0.065608 0.667588
vt 0.065366 0.672272
vt 0.067347 0.667667
vt 0.067313 0.672254
vt 0.061544 0.667500
vt 0.061358 0.672227
vt 0.063281 0.675500
vt 0.061524 0.672230
vt 0.065487 0.675509
vt 0.063528 0.672265
vt 0.065650 0.675508
vt 0.065531 0.672272
vt 0.061291 0.675468
vt 0.059551 0.672168
vt 0.097915 0.668534
vt 0.097191 0.673213
vt 0.093212 0.670608
vt 0.093696 0.670246
vt 0.107769 0.668463
vt 0.101641 0.670137
vt 0.101858 0.670817
vt 0.059217 0.664258
vt 0.059242 0.667524
vt 0.061455 0.675474
vt 0.097396 0.668539
vt 0.093447 0.670954
vt 0.107379 0.668429
vt 0.103107 0.670086
vt 0.111336 0.670513
vt 0.097631 0.673230
vt 0.059388 0.672161
vt 0.059237 0.675359
vt 0.059074 0.675346
vt 0.063444 0.675501
vt 0.007443 0.671247
vt 0.009042 0.670116
vt 0.008926 0.672761
vt 0.008979 0.673698
vt 0.009006 0.676345
vt 0.007445 0.675160
vt 0.018688 0.670714
vt 0.020968 0.670718
vt 0.018687 0.671202
vt 0.026513 0.672687
vt 0.028792 0.673190
vt 0.026510 0.673175
vt 0.029343 0.672045
vt 0.028567 0.672029
vt 0.029353 0.671557
vt 0.014189 0.669980
vt 0.014142 0.673757
vt 0.021140 0.670718
vt 0.026151 0.670728
vt 0.021139 0.671207
vt 0.020898 0.671865
vt 0.018807 0.671821
vt 0.020908 0.671377
vt 0.026086 0.671976
vt 0.021076 0.671869
vt 0.026096 0.671487
vt 0.016685 0.670090
vt 0.014088 0.672877
vt 0.016643 0.676630
vt 0.014145 0.676656
vt 0.028638 0.670733
vt 0.026150 0.671216
vt 0.028577 0.671540
vt 0.017401 0.670343
vt 0.016625 0.673042
vt 0.016682 0.673678
vt 0.017367 0.676401
vt 0.029396 0.670734
vt 0.028637 0.671221
vt 0.007309 0.671175
vt 0.007326 0.671304
vt 0.017548 0.672722
vt 0.017406 0.672996
vt 0.017366 0.672867
vt 0.017438 0.670218
vt 0.017630 0.670495
vt 0.017594 0.674028
vt 0.017418 0.673877
vt 0.017462 0.673750
vt 0.007330 0.675100
vt 0.007309 0.675228
vt 0.017400 0.676527
vt 0.017601 0.676257
vt 0.009084 0.676484
vt 0.008911 0.676426
vt 0.008888 0.673625
vt 0.009053 0.673565
vt 0.008996 0.672896
vt 0.008833 0.672831
vt 0.008950 0.670033
vt 0.009125 0.669980
vt 0.016632 0.673177
vt 0.016653 0.676762
vt 0.026206 0.672685
vt 0.026203 0.673174
vt 0.028795 0.672701
vt 0.029139 0.673192
vt 0.018698 0.671330
vt 0.018817 0.671332
vt 0.014142 0.673622
vt 0.014193 0.669846
vt 0.020967 0.671206
vt 0.021087 0.671381
vt 0.016694 0.673542
vt 0.016699 0.669958
vt 0.014144 0.676789
vt 0.014084 0.673011
vt 0.019185 0.667616
vt 0.020755 0.666664
vt 0.020681 0.669111
vt 0.009237 0.666508
vt 0.009229 0.668956
vt 0.007692 0.667952
vt 0.018692 0.670098
vt 0.020971 0.670119
vt 0.018687 0.670586
vt 0.023309 0.672687
vt 0.025588 0.673190
vt 0.023306 0.673175
vt 0.029207 0.672669
vt 0.028448 0.672661
vt 0.029212 0.672181
vt 0.025901 0.666422
vt 0.014353 0.666282
vt 0.021143 0.670120
vt 0.026150 0.670167
vt 0.021138 0.670609
vt 0.020772 0.672580
vt 0.018807 0.672559
vt 0.020777 0.672091
vt 0.025965 0.672635
vt 0.020950 0.672581
vt 0.025970 0.672146
vt 0.028435 0.666486
vt 0.025787 0.669508
vt 0.016899 0.669391
vt 0.014365 0.669370
vt 0.028639 0.670190
vt 0.026146 0.670656
vt 0.028453 0.672173
vt 0.029178 0.666690
vt 0.028294 0.669370
vt 0.016854 0.666503
vt 0.017649 0.669212
vt 0.029397 0.670197
vt 0.028634 0.670679
vt 0.019051 0.667543
vt 0.019068 0.667673
vt 0.029204 0.669068
vt 0.029053 0.669330
vt 0.029017 0.669204
vt 0.029219 0.666562
vt 0.029401 0.666851
vt 0.017754 0.666836
vt 0.017571 0.666693
vt 0.017612 0.666569
vt 0.007577 0.667891
vt 0.007556 0.668020
vt 0.017685 0.669341
vt 0.017877 0.669058
vt 0.009307 0.669096
vt 0.009135 0.669037
vt 0.009147 0.666434
vt 0.009312 0.666375
vt 0.020751 0.669246
vt 0.020588 0.669182
vt 0.020663 0.666580
vt 0.020838 0.666527
vt 0.028301 0.669503
vt 0.016909 0.669526
vt 0.023003 0.672685
vt 0.023000 0.673174
vt 0.025592 0.672701
vt 0.025936 0.673192
vt 0.018693 0.672069
vt 0.018812 0.672070
vt 0.014354 0.666149
vt 0.025905 0.666287
vt 0.020967 0.670607
vt 0.020955 0.672093
vt 0.016866 0.666371
vt 0.028450 0.666351
vt 0.014363 0.669505
vt 0.025783 0.669640
vt 0.067518 0.675434
vt 0.102093 0.670487
vt 0.029395 0.671223
vt 0.029143 0.672703
vt 0.018687 0.671818
vt 0.029392 0.670686
vt 0.025939 0.672703
vt 0.018687 0.672557
vn 0.0000 -0.0000 1.0000
vn 0.9995 0.0301 0.0000
vn 0.0000 0.0000 -1.0000
vn -0.9982 0.0599 0.0000
vn 0.0000 0.6098 0.7925
vn 0.8202 0.5721 0.0000
vn 0.0000 0.6098 -0.7925
vn -0.8202 0.5721 0.0000
vn 0.0000 0.0322 0.9995
vn 0.9999 -0.0123 0.0000
vn 0.0000 0.0376 -0.9993
vn -0.9997 -0.0246 0.0000
vn 0.0000 -0.0447 0.9990
vn 0.0000 -0.0522 -0.9986
vn 0.0942 0.9956 0.0000
vn -0.6518 0.4390 0.6184
vn 0.6451 0.4568 0.6125
vn 0.6512 0.4407 -0.6178
vn -0.6473 0.4513 -0.6143
vn 0.7069 0.0213 0.7069
vn 0.7070 0.0140 0.7070
vn -0.4994 0.7196 0.4825
vn 0.7069 0.0213 -0.7069
vn 0.7069 0.0212 -0.7069
vn 0.7070 0.0178 -0.7070
vn -0.7065 0.0424 -0.7065
vn -0.7065 -0.0490 0.7060
vn -0.7063 -0.0490 0.7062
vn -0.7063 -0.0490 0.7063
vn 0.4994 0.7196 0.4825
vn 0.4994 0.7196 -0.4825
vn -0.4994 0.7196 -0.4825
vn 0.0000 0.3008 0.9537
vn 0.9558 0.2939 0.0000
vn 0.0000 0.2973 -0.9548
vn 0.0000 0.2972 -0.9548
vn -0.9576 0.2881 0.0000
vn -0.7065 0.0424 0.7065
vn -0.7071 0.0091 -0.7071
vn -0.7065 -0.0543 -0.7056
vn -0.7064 -0.0543 -0.7057
vn 0.7064 -0.0457 -0.7064
vn 0.7068 -0.0456 -0.7059
vn 0.7065 -0.0403 0.7065
vn 0.7068 -0.0403 0.7062
vn 0.7069 -0.0403 0.7062
vn -0.7071 0.0053 0.7071
vn -0.6702 -0.7422 0.0000
vn 0.9995 -0.0308 0.0000
vn 0.2593 0.9658 0.0000
vn 0.0461 -0.9989 0.0000
vn -0.5749 0.8183 0.0000
vn -0.0454 0.9990 0.0000
vn -0.0707 -0.9975 0.0000
vn -0.0085 1.0000 0.0000
vn 0.1678 -0.9858 0.0000
vn -0.7042 -0.1608 -0.6915
vn 0.7954 -0.4203 -0.4366
vn 0.6647 0.5099 -0.5460
vn 0.7954 -0.4203 0.4366
vn -0.7042 -0.1608 0.6915
vn 0.6648 0.5099 0.5460
vn -0.2732 0.7883 0.5513
vn -0.2943 -0.8210 0.4892
vn -0.2943 -0.8210 -0.4892
vn -0.2732 0.7883 -0.5513
vn -0.4564 0.6259 -0.6324
vn 0.5409 0.0000 -0.8411
vn 0.1202 -0.7007 -0.7032
vn 0.1192 -0.6983 -0.7058
vn 0.1207 -0.7019 -0.7019
vn -0.5435 -0.5893 0.5977
vn 0.3972 -0.0000 0.9177
vn 0.1894 0.6943 0.6943
vn 0.8842 -0.4672 0.0000
vn 0.7935 0.6086 0.0000
vn -0.9749 -0.2225 0.0000
vn -0.3749 0.5142 0.7714
vn 0.0326 -0.7067 0.7067
vn -0.4788 -0.5192 -0.7080
vn -0.0321 0.7068 -0.7067
vn -0.0321 0.7067 -0.7067
vn -0.3374 -0.9414 0.0000
vn -0.3274 0.9449 0.0000
vn -0.0500 -0.7062 0.7062
vn -0.0321 0.7068 0.7067
vn -0.0321 0.7067 0.7067
vn -0.0060 0.7071 -0.7071
vn 0.0326 -0.7067 -0.7067
vn -0.0060 0.7071 0.7071
vn 0.1198 -0.6983 0.7057
vn 0.1196 -0.7008 0.7033
vn 0.1199 -0.6970 0.7070
vn -0.0500 -0.7062 -0.7062
vn 0.1862 0.6825 -0.7068
vn -1.0000 0.0000 0.0000
vn 1.0000 -0.0000 0.0000
vn 0.0000 -0.7422 0.6702
vn -0.0000 -0.0308 -0.9995
vn 0.0000 0.9873 -0.1586
vn 0.0000 -0.9996 0.0268
vn 0.0000 0.8710 0.4913
vn 0.0000 0.9981 0.0622
vn 0.0000 -0.9971 -0.0761
vn 0.0000 0.9993 0.0375
vn 0.0000 -0.9858 -0.1678
vn -0.6915 -0.1608 0.7043
vn -0.4366 -0.4203 -0.7954
vn -0.5460 0.5099 -0.6648
vn 0.4366 -0.4203 -0.7954
vn 0.6915 -0.1608 0.7043
vn 0.5460 0.5099 -0.6648
vn 0.5513 0.7883 0.2731
vn 0.4892 -0.8210 0.2943
vn -0.4892 -0.8210 0.2943
vn -0.5513 0.7883 0.2732
vn -0.6111 0.6823 0.4013
vn -0.8411 0.0000 -0.5409
vn -0.7033 -0.7007 -0.1202
vn -0.7058 -0.6983 -0.1192
vn -0.7019 -0.7019 -0.1208
vn 0.5977 -0.5893 0.5435
vn 0.9177 -0.0000 -0.3972
vn 0.7024 0.7024 -0.1156
vn 0.0000 -0.4672 -0.8842
vn 0.0000 0.6086 -0.7935
vn 0.0000 -0.2225 0.9749
vn 0.7560 0.5642 0.3318
vn 0.7070 -0.7070 0.0180
vn -0.7080 -0.5192 0.4788
vn -0.7047 0.7081 0.0439
vn -0.7021 0.7107 0.0442
vn -0.7064 0.7064 0.0438
vn 0.0000 -0.9414 0.3374
vn 0.0000 0.9449 0.3274
vn 0.7061 -0.7061 -0.0539
vn 0.7022 0.7106 0.0441
vn 0.7047 0.7081 0.0440
vn 0.7005 0.7123 0.0441
vn -0.7069 0.7069 0.0266
vn -0.6803 -0.7327 0.0187
vn 0.7069 0.7069 0.0266
vn 0.7057 -0.6983 -0.1198
vn 0.7034 -0.7007 -0.1196
vn 0.7070 -0.6970 -0.1199
vn -0.7061 -0.7061 -0.0539
vn -0.7134 0.6914 -0.1138
vn -0.0942 0.9956 -0.0000
vn -0.6300 0.4550 0.6293
vn 0.6348 0.4419 0.6338
vn 0.6300 0.4562 -0.6285
vn -0.6369 0.4363 -0.6357
vn -0.7061 -0.0543 -0.7061
vn -0.3675 0.5231 -0.7689
vn 0.3887 -0.0120 -0.9213
vn 0.1187 -0.6971 -0.7071
vn -0.4739 -0.5248 0.7071
vn 0.5556 -0.0171 0.8313
vn 0.1833 0.6829 0.7071
vn -0.4469 0.6361 0.6290
vn -0.5382 -0.5960 -0.5960
vn -0.3374 -0.9413 0.0000
vn 0.1195 -0.7020 0.7020
vn 0.1865 0.6947 -0.6947
vn -0.7527 0.5734 0.3234
vn -0.9213 -0.0120 -0.3887
vn -0.7071 -0.6971 -0.1187
vn 0.7071 -0.5248 0.4739
vn 0.8313 -0.0171 -0.5556
vn 0.7136 0.6917 -0.1111
vn 0.6067 0.6924 0.3906
vn 0.6797 -0.7332 0.0196
vn -0.5960 -0.5960 0.5382
vn -0.7004 0.7124 0.0444
vn 0.7064 0.7064 0.0440
vn -0.7070 -0.7070 0.0189
vn 0.7020 -0.7020 -0.1195
vn -0.7026 0.7026 -0.1128
usemtl BigPalette
s 1
f 1/1/1 19/2/1 10/3/1
f 2/4/2 21/5/2 11/6/2
f 4/7/3 20/8/3 12/9/3
f 3/10/4 18/11/4 13/12/4
f 7/13/5 5/14/5 27/15/5
f 8/16/6 22/17/6 30/18/6
f 9/19/7 23/20/7 33/21/7
f 6/22/8 24/23/8 36/24/8
f 38/25/9 16/26/9 10/3/9
f 39/27/10 15/28/10 11/6/10
f 40/29/11 14/30/11 12/9/11
f 37/31/12 17/32/12 13/12/12
f 16/26/13 28/33/13 44/34/13
f 15/28/10 31/35/10 43/36/10
f 14/30/14 32/37/14 42/38/14
f 17/32/12 25/39/12 41/40/12
f 5/14/15 23/41/15 24/23/15
f 6/22/16 26/42/16 27/15/16
f 7/13/17 29/43/17 30/44/17
f 8/16/18 32/45/18 33/21/18
f 9/46/19 35/47/19 36/24/19
f 19/2/20 11/6/20 38/25/21
f 5/14/22 6/22/22 27/15/22
f 21/5/23 12/9/24 39/27/25
f 20/48/26 13/12/26 40/49/26
f 26/50/27 17/32/28 44/34/29
f 7/13/30 22/51/30 5/14/30
f 8/16/31 23/20/31 22/17/31
f 9/46/32 24/23/32 23/41/32
f 28/52/33 27/15/33 26/42/33
f 31/53/34 30/18/34 29/54/34
f 34/55/35 33/21/36 32/45/36
f 25/56/37 36/24/37 35/47/37
f 10/3/38 18/11/38 1/1/38
f 38/25/21 43/36/21 16/26/21
f 39/27/25 42/38/25 15/28/25
f 40/49/39 41/40/39 14/57/39
f 14/57/40 35/58/41 34/59/41
f 15/28/42 32/37/43 31/35/43
f 16/26/44 29/60/45 28/33/46
f 44/34/47 37/31/47 10/3/47
f 63/61/3 82/62/3 53/63/3
f 78/64/1 51/65/1 71/66/1
f 64/67/48 80/68/48 49/69/48
f 46/70/49 74/71/49 48/72/49
f 67/73/50 90/74/50 50/75/50
f 82/62/3 85/76/3 53/63/3
f 78/64/1 83/77/1 51/65/1
f 79/78/51 86/79/51 77/80/51
f 54/81/52 45/82/52 76/83/52
f 57/84/53 81/85/53 84/86/53
f 85/76/3 62/87/3 58/88/3
f 83/77/1 87/89/1 56/90/1
f 86/79/54 61/91/54 55/92/54
f 90/74/55 57/84/55 59/93/55
f 62/87/3 47/94/3 89/95/3
f 60/96/1 73/97/1 87/89/1
f 61/91/56 65/98/56 88/99/56
f 45/100/57 63/61/57 64/101/57
f 46/102/58 65/103/58 66/104/58
f 47/94/59 67/105/59 68/106/59
f 48/107/60 69/108/60 70/109/60
f 49/110/61 71/66/61 72/111/61
f 50/112/62 73/97/62 74/113/62
f 51/65/63 75/114/63 76/115/63
f 52/116/64 77/117/64 78/64/64
f 53/63/65 79/118/65 80/119/65
f 54/120/66 81/121/66 82/62/66
f 63/61/67 54/120/67 82/62/67
f 47/94/68 46/102/68 66/104/68
f 66/104/69 61/122/70 89/95/71
f 71/66/72 52/116/72 78/64/72
f 69/108/73 74/113/73 73/97/73
f 73/97/74 59/123/74 87/89/74
f 65/124/75 48/72/75 70/125/75
f 68/126/76 50/127/76 74/71/76
f 45/82/77 49/128/77 72/129/77
f 51/65/78 72/111/78 71/66/78
f 78/64/79 55/130/79 83/77/79
f 53/63/80 64/101/80 63/61/80
f 82/62/81 57/131/82 85/76/82
f 80/68/83 77/80/83 52/132/83
f 81/85/84 76/83/84 75/133/84
f 83/77/85 88/134/85 60/96/85
f 56/90/86 75/114/87 51/65/87
f 85/76/88 90/135/88 62/87/88
f 58/88/89 79/118/89 53/63/89
f 87/89/90 84/136/90 56/90/90
f 60/96/91 70/109/92 69/108/93
f 89/95/94 86/137/94 58/88/94
f 62/87/95 67/105/95 47/94/95
f 109/138/96 128/139/96 99/140/96
f 124/141/97 97/142/97 117/143/97
f 110/144/98 126/145/98 95/146/98
f 92/147/99 120/148/99 94/149/99
f 113/150/100 136/151/100 96/152/100
f 128/139/96 131/153/96 99/140/96
f 124/141/97 129/154/97 97/142/97
f 125/155/101 132/156/101 123/157/101
f 100/158/102 91/159/102 122/160/102
f 103/161/103 127/162/103 130/163/103
f 131/153/96 108/164/96 104/165/96
f 129/154/97 133/166/97 102/167/97
f 132/156/104 107/168/104 101/169/104
f 136/151/105 103/161/105 105/170/105
f 108/164/96 93/171/96 135/172/96
f 106/173/97 119/174/97 133/166/97
f 107/168/106 111/175/106 134/176/106
f 91/177/107 109/138/107 110/178/107
f 92/179/108 111/180/108 112/181/108
f 93/171/109 113/182/109 114/183/109
f 94/184/110 115/185/110 116/186/110
f 95/187/111 117/143/111 118/188/111
f 96/189/112 119/174/112 120/190/112
f 97/142/113 121/191/113 122/192/113
f 98/193/114 123/194/114 124/141/114
f 99/140/115 125/195/115 126/196/115
f 100/197/116 127/198/116 128/139/116
f 109/138/117 100/197/117 128/139/117
f 93/171/118 92/179/118 112/181/118
f 112/181/119 107/199/120 135/172/121
f 117/143/122 98/193/122 124/141/122
f 115/185/123 120/190/123 119/174/123
f 119/174/124 105/200/124 133/166/124
f 111/201/125 94/149/125 116/202/125
f 114/203/126 96/204/126 120/148/126
f 91/159/127 95/205/127 118/206/127
f 97/142/128 118/188/128 117/143/128
f 124/141/129 101/207/129 129/154/129
f 99/140/130 110/178/130 109/138/130
f 128/139/131 103/208/132 131/153/133
f 126/145/134 123/157/134 98/209/134
f 127/162/135 122/160/135 121/210/135
f 129/154/136 134/211/136 106/173/136
f 102/167/137 121/191/138 97/142/139
f 131/153/140 136/212/140 108/164/140
f 104/165/141 125/195/141 99/140/141
f 133/166/142 130/213/142 102/167/142
f 106/173/143 116/186/144 115/185/145
f 135/172/146 132/214/146 104/165/146
f 108/164/147 113/182/147 93/171/147
f 19/2/1 38/25/1 10/3/1
f 21/5/2 39/27/2 11/6/2
f 20/8/3 40/29/3 12/9/3
f 18/11/4 37/31/4 13/12/4
f 16/26/9 44/34/9 10/3/9
f 15/28/10 43/36/10 11/6/10
f 14/30/11 42/38/11 12/9/11
f 17/32/12 41/40/12 13/12/12
f 28/33/13 26/50/13 44/34/13
f 31/35/10 29/60/10 43/36/10
f 14/30/14 34/215/14 32/37/14
f 25/39/12 35/58/12 41/40/12
f 5/14/148 22/51/148 23/41/148
f 6/22/149 25/56/149 26/42/149
f 7/13/150 28/52/150 29/43/150
f 8/16/151 31/53/151 32/45/151
f 9/46/152 34/216/152 35/47/152
f 19/2/20 2/4/20 11/6/20
f 5/14/22 24/23/22 6/22/22
f 21/5/23 4/7/23 12/9/24
f 20/48/26 3/10/26 13/12/26
f 26/50/27 25/39/27 17/32/28
f 7/13/30 30/44/30 22/51/30
f 8/16/31 33/21/31 23/20/31
f 9/46/32 36/24/32 24/23/32
f 28/52/33 7/13/33 27/15/33
f 31/53/34 8/16/34 30/18/34
f 34/55/35 9/19/35 33/21/36
f 25/56/37 6/22/37 36/24/37
f 10/3/38 37/31/38 18/11/38
f 38/25/21 11/6/20 43/36/21
f 39/27/25 12/9/24 42/38/25
f 40/49/39 13/12/39 41/40/39
f 14/57/40 41/40/153 35/58/41
f 15/28/42 42/38/42 32/37/43
f 16/26/44 43/36/44 29/60/45
f 44/34/47 17/32/47 37/31/47
f 80/68/48 52/132/48 49/69/48
f 46/70/49 68/126/49 74/71/49
f 90/74/50 59/93/50 50/75/50
f 85/76/3 58/88/3 53/63/3
f 83/77/1 56/90/1 51/65/1
f 86/79/51 55/92/51 77/80/51
f 45/82/52 72/129/52 76/83/52
f 81/85/53 75/133/53 84/86/53
f 62/87/3 89/95/3 58/88/3
f 83/77/1 60/96/1 87/89/1
f 61/91/54 88/99/54 55/92/54
f 57/84/55 84/86/55 59/93/55
f 47/94/3 66/104/3 89/95/3
f 60/96/1 69/108/1 73/97/1
f 65/98/56 70/217/56 88/99/56
f 63/61/154 45/100/154 54/120/154
f 47/94/155 68/106/155 46/102/155
f 66/104/69 65/103/156 61/122/70
f 71/66/157 49/110/157 52/116/157
f 69/108/158 48/107/158 74/113/158
f 73/97/159 50/112/159 59/123/159
f 65/124/75 46/70/75 48/72/75
f 68/126/76 67/218/76 50/127/76
f 45/82/77 64/219/77 49/128/77
f 51/65/160 76/115/160 72/111/160
f 78/64/79 77/117/79 55/130/79
f 53/63/161 80/119/161 64/101/161
f 82/62/81 81/121/81 57/131/82
f 80/68/83 79/78/162 77/80/83
f 81/85/84 54/81/84 76/83/84
f 83/77/85 55/130/85 88/134/85
f 56/90/86 84/136/86 75/114/87
f 85/76/88 57/131/88 90/135/88
f 58/88/89 86/137/89 79/118/89
f 87/89/90 59/123/90 84/136/90
f 60/96/91 88/134/163 70/109/92
f 89/95/94 61/122/94 86/137/94
f 62/87/164 90/135/164 67/105/164
f 126/145/98 98/209/98 95/146/98
f 92/147/99 114/203/99 120/148/99
f 136/151/100 105/170/100 96/152/100
f 131/153/96 104/165/96 99/140/96
f 129/154/97 102/167/97 97/142/97
f 132/156/101 101/169/101 123/157/101
f 91/159/102 118/206/102 122/160/102
f 127/162/103 121/210/103 130/163/103
f 108/164/96 135/172/96 104/165/96
f 129/154/97 106/173/97 133/166/97
f 107/168/104 134/176/104 101/169/104
f 103/161/105 130/163/105 105/170/105
f 93/171/96 112/181/96 135/172/96
f 106/173/97 115/185/97 119/174/97
f 111/175/106 116/220/106 134/176/106
f 109/138/165 91/177/165 100/197/165
f 93/171/166 114/183/166 92/179/166
f 112/181/119 111/180/167 107/199/120
f 117/143/168 95/187/168 98/193/168
f 115/185/169 94/184/169 120/190/169
f 119/174/170 96/189/170 105/200/170
f 111/201/125 92/147/125 94/149/125
f 114/203/126 113/221/126 96/204/126
f 91/159/127 110/222/127 95/205/127
f 97/142/171 122/192/171 118/188/171
f 124/141/172 123/194/172 101/207/172
f 99/140/173 126/196/173 110/178/173
f 128/139/131 127/198/174 103/208/132
f 126/145/134 125/155/134 123/157/134
f 127/162/135 100/158/135 122/160/135
f 129/154/136 101/207/136 134/211/136
f 102/167/137 130/213/175 121/191/138
f 131/153/140 103/208/140 136/212/140
f 104/165/176 132/214/176 125/195/176
f 133/166/142 105/200/142 130/213/142
f 106/173/143 134/211/177 116/186/144
f 135/172/146 107/199/146 132/214/146
f 108/164/178 136/212/178 113/182/178
