# Blender v2.92.0 OBJ File: 'grass_2.blend'
# www.blender.org
mtllib grass_2.mtl
o Grass_03_Cylinder.015
v 0.010771 -0.028089 -0.067713
v -0.024426 -0.031333 -0.039311
v -0.031469 -0.031686 -0.084058
v -0.010178 0.076440 -0.066892
v 0.002512 0.016509 -0.059164
v -0.021693 0.014275 -0.039033
v -0.026618 0.014031 -0.070863
v 0.025917 -0.030420 0.030078
v 0.048626 -0.030420 0.069411
v 0.003208 -0.030420 0.069411
v 0.025917 0.118570 0.056300
v 0.037948 0.044224 0.038070
v 0.049353 0.044224 0.057824
v 0.026543 0.044224 0.057824
v -0.051072 0.272557 -0.010157
v -0.031283 0.272557 0.024118
v -0.067974 0.460326 0.012693
v -0.070861 0.272557 0.024118
v -0.067975 0.103532 -0.009262
v -0.035604 0.103532 0.054478
v -0.100345 0.103532 0.054478
v -0.067975 -0.030632 -0.035407
v -0.025917 -0.030632 0.039311
v -0.110032 -0.030632 0.039311
vt 0.262538 0.912750
vt 0.261091 0.912691
vt 0.262526 0.909810
vt 0.246080 0.910345
vt 0.249049 0.908598
vt 0.248393 0.911032
vt 0.266502 0.911252
vt 0.266585 0.913108
vt 0.264630 0.912574
vt 0.266585 0.909324
vt 0.263900 0.911199
vt 0.245803 0.911803
vt 0.249049 0.912773
vt 0.263900 0.913549
vt 0.263900 0.909324
vt 0.260727 0.910179
vt 0.261005 0.912928
vt 0.258942 0.911264
vt 0.249278 0.909443
vt 0.251254 0.908598
vt 0.250386 0.910668
vt 0.256761 0.911377
vt 0.257449 0.913490
vt 0.254941 0.912399
vt 0.257449 0.907866
vt 0.253826 0.909902
vt 0.249049 0.911795
vt 0.251254 0.914234
vt 0.261005 0.907866
vt 0.257449 0.910026
vt 0.260563 0.901924
vt 0.261091 0.907866
vt 0.257206 0.903264
vt 0.267032 0.904798
vt 0.265016 0.909324
vt 0.264496 0.903514
vt 0.250224 0.898535
vt 0.252036 0.893004
vt 0.253826 0.898548
vt 0.252305 0.904111
vt 0.245803 0.903956
vt 0.261091 0.897453
vt 0.265240 0.899554
vt 0.254165 0.900119
vt 0.260189 0.897606
vt 0.253826 0.908598
vt 0.246022 0.908537
vt 0.261641 0.893004
vt 0.267032 0.895734
vt 0.253826 0.895931
vt 0.261091 0.893004
vn 0.6102 0.2271 0.7590
vn -0.9588 0.2433 0.1465
vn 0.3753 -0.0400 -0.9260
vn 0.3385 0.2323 -0.9118
vn -0.9863 0.0592 0.1537
vn 0.6343 -0.0367 0.7722
vn 0.8376 0.2541 -0.4836
vn 0.0000 0.0205 0.9998
vn -0.8659 -0.0175 -0.4999
vn -0.8503 0.1896 -0.4909
vn 0.0000 0.1534 0.9882
vn 0.8628 -0.0857 -0.4982
vn 0.8578 0.1375 -0.4953
vn 0.0000 0.0607 0.9982
vn -0.8659 -0.0171 -0.4999
vn -0.8801 0.0775 -0.4684
vn 0.0000 0.1768 0.9842
vn 0.8785 -0.0984 -0.4675
vn -0.8760 0.1041 -0.4709
vn 0.0000 -0.1123 0.9937
vn 0.8760 0.1041 -0.4709
usemtl BigPalette
s 1
f 5/1/1 4/2/1 6/3/1
f 6/4/2 4/5/2 7/6/2
f 7/7/3 4/8/3 5/9/3
f 3/10/4 7/7/4 5/9/4 1/11/4
f 2/12/5 6/4/5 7/6/5 3/13/5
f 1/14/6 5/1/6 6/3/6 2/15/6
f 12/16/7 11/17/7 13/18/7
f 13/19/8 11/20/8 14/21/8
f 14/22/9 11/23/9 12/24/9
f 10/25/10 14/22/10 12/24/10 8/26/10
f 9/27/11 13/19/11 14/21/11 10/28/11
f 8/29/12 12/16/12 13/18/12 9/30/12
f 15/31/13 17/32/13 16/33/13
f 16/34/14 17/35/14 18/36/14
f 18/37/15 17/38/15 15/39/15
f 18/37/16 15/39/16 19/40/16 21/41/16
f 16/34/17 18/36/17 21/42/17 20/43/17
f 15/31/18 16/33/18 20/44/18 19/45/18
f 21/41/19 19/40/19 22/46/19 24/47/19
f 20/43/20 21/42/20 24/48/20 23/49/20
f 19/45/21 20/44/21 23/50/21 22/51/21
