# Blender v2.92.0 OBJ File: 'grass_1.blend'
# www.blender.org
mtllib grass_1.mtl
o Grass_02_Cylinder.009
v 0.036350 -0.033879 -0.051204
v 0.059060 -0.033879 -0.011871
v 0.013641 -0.033879 -0.011871
v 0.035356 0.109465 -0.047605
v 0.032043 0.032775 -0.044318
v 0.045012 0.032775 -0.021855
v 0.019074 0.032775 -0.021855
v 0.031746 -0.031548 0.028215
v -0.003451 -0.034792 0.056618
v -0.010494 -0.035145 0.011871
v 0.010797 0.072981 0.029036
v 0.023487 0.013050 0.036765
v -0.000718 0.010816 0.056895
v -0.005643 0.010572 0.025066
v -0.036350 -0.033879 -0.051204
v -0.013641 -0.033879 -0.011871
v -0.059060 -0.033879 -0.011871
v -0.036350 0.115111 -0.024982
v -0.024319 0.040765 -0.043212
v -0.012914 0.040765 -0.023458
v -0.035725 0.040765 -0.023458
vt 0.256265 0.904697
vt 0.258060 0.902642
vt 0.257972 0.906171
vt 0.254343 0.905419
vt 0.255070 0.907822
vt 0.252151 0.904987
vt 0.253862 0.901324
vt 0.251233 0.897971
vt 0.253862 0.898549
vt 0.256099 0.902642
vt 0.256099 0.897782
vt 0.255070 0.903398
vt 0.251233 0.902642
vt 0.255070 0.906548
vt 0.258060 0.909128
vt 0.248186 0.911628
vt 0.246233 0.911144
vt 0.248179 0.908229
vt 0.256492 0.899174
vt 0.260181 0.897782
vt 0.259400 0.900302
vt 0.253419 0.911654
vt 0.251233 0.909789
vt 0.253425 0.908264
vt 0.254860 0.912713
vt 0.254860 0.907822
vt 0.256099 0.900715
vt 0.260181 0.902305
vt 0.249810 0.912866
vt 0.249810 0.907982
vt 0.247548 0.905325
vt 0.246848 0.903116
vt 0.249556 0.905325
vt 0.258489 0.903835
vt 0.261316 0.902642
vt 0.260124 0.904896
vt 0.248533 0.900173
vt 0.248774 0.897782
vt 0.251044 0.900173
vt 0.246233 0.903116
vt 0.251233 0.903116
vt 0.258060 0.906405
vt 0.261316 0.908518
vt 0.246233 0.907982
vt 0.250230 0.907982
vn 0.8645 -0.0587 -0.4991
vn 0.0000 0.3183 0.9480
vn -0.8659 0.0160 -0.4999
vn -0.8660 -0.0043 -0.5000
vn -0.0000 0.1481 0.9890
vn 0.8611 0.1070 -0.4971
vn 0.6102 0.2271 0.7590
vn -0.9588 0.2433 0.1465
vn 0.3753 -0.0400 -0.9260
vn 0.3385 0.2323 -0.9118
vn -0.9863 0.0592 0.1537
vn 0.6343 -0.0367 0.7722
vn 0.8376 0.2541 -0.4836
vn -0.0000 0.0205 0.9998
vn -0.8659 -0.0175 -0.4999
vn -0.8503 0.1896 -0.4909
vn -0.0000 0.1534 0.9882
vn 0.8628 -0.0857 -0.4982
usemtl BigPalette
s 1
f 5/1/1 4/2/1 6/3/1
f 6/4/2 4/5/2 7/6/2
f 7/7/3 4/8/3 5/9/3
f 3/10/4 7/7/4 5/9/4 1/11/4
f 2/12/5 6/4/5 7/6/5 3/13/5
f 1/14/6 5/1/6 6/3/6 2/15/6
f 12/16/7 11/17/7 13/18/7
f 13/19/8 11/20/8 14/21/8
f 14/22/9 11/23/9 12/24/9
f 10/25/10 14/22/10 12/24/10 8/26/10
f 9/27/11 13/19/11 14/21/11 10/28/11
f 8/29/12 12/16/12 13/18/12 9/30/12
f 19/31/13 18/32/13 20/33/13
f 20/34/14 18/35/14 21/36/14
f 21/37/15 18/38/15 19/39/15
f 17/40/16 21/37/16 19/39/16 15/41/16
f 16/42/17 20/34/17 21/36/17 17/43/17
f 15/44/18 19/31/18 20/33/18 16/45/18
