# Blender v2.92.0 OBJ File: 'grass_0.blend'
# www.blender.org
mtllib grass_0.mtl
o Grass_01_Cylinder.012
v 0.030796 0.277355 -0.068299
v -0.004423 0.277355 -0.050242
v 0.008816 0.465124 -0.086319
v -0.002451 0.277355 -0.089771
v 0.030743 0.108330 -0.085225
v -0.034531 0.108330 -0.056070
v -0.031305 0.108330 -0.120731
v 0.056856 -0.025834 -0.083922
v -0.019864 -0.025834 -0.045640
v -0.015673 -0.025834 -0.129650
v 0.061258 0.277355 0.023147
v 0.075517 0.277355 0.057422
v 0.078075 0.419296 0.022823
v 0.035939 0.277355 0.057422
v 0.086992 0.108330 -0.018213
v 0.109058 0.108330 0.035539
v 0.054788 0.108330 0.035539
v 0.082730 -0.025834 -0.028906
v 0.125085 -0.025834 0.045640
v 0.055227 -0.025834 0.045640
v -0.038324 0.277355 0.025953
v -0.018535 0.277355 0.060229
v -0.055227 0.465124 0.048803
v -0.058114 0.277355 0.060229
v -0.055227 0.108330 0.026849
v -0.022856 0.108330 0.090589
v -0.087598 0.108330 0.090589
v -0.055227 -0.025834 0.000704
v -0.013169 -0.025834 0.075421
v -0.097285 -0.025834 0.075421
vt 0.252743 0.906384
vt 0.252743 0.909703
vt 0.250101 0.906958
vt 0.260875 0.893645
vt 0.264026 0.891790
vt 0.263401 0.894511
vt 0.252917 0.900902
vt 0.253441 0.899027
vt 0.255349 0.901624
vt 0.254357 0.903937
vt 0.250101 0.902498
vt 0.264026 0.898028
vt 0.259893 0.896611
vt 0.247081 0.909817
vt 0.247007 0.907225
vt 0.249801 0.905598
vt 0.249801 0.910340
vt 0.255349 0.906384
vt 0.250113 0.904786
vt 0.260614 0.910324
vt 0.260614 0.905907
vt 0.262874 0.905246
vt 0.262874 0.910985
vt 0.260738 0.903819
vt 0.260614 0.899027
vt 0.262885 0.899539
vt 0.262885 0.905246
vt 0.246495 0.900278
vt 0.246989 0.899209
vt 0.249090 0.900097
vt 0.252743 0.908757
vt 0.254707 0.906384
vt 0.254707 0.910620
vt 0.256341 0.899445
vt 0.260614 0.899027
vt 0.258929 0.900709
vt 0.260614 0.904100
vt 0.256828 0.902042
vt 0.244066 0.908275
vt 0.244066 0.905598
vt 0.247007 0.906889
vt 0.247007 0.910560
vt 0.248891 0.903671
vt 0.244830 0.903966
vt 0.259979 0.906060
vt 0.255349 0.903031
vt 0.257609 0.909716
vt 0.257609 0.906060
vt 0.259650 0.906176
vt 0.259650 0.910882
vt 0.250085 0.905598
vt 0.244066 0.905598
vt 0.255137 0.895739
vt 0.255662 0.899027
vt 0.252564 0.896757
vt 0.256434 0.893426
vt 0.259893 0.891790
vt 0.259020 0.894321
vt 0.247398 0.893908
vt 0.248819 0.891790
vt 0.250101 0.894385
vt 0.248956 0.896841
vt 0.244066 0.895860
vt 0.259893 0.898004
vt 0.255662 0.896541
vt 0.250429 0.896285
vt 0.255018 0.894304
vt 0.250101 0.899209
vt 0.244242 0.898146
vt 0.257609 0.906711
vt 0.257609 0.911091
vt 0.255349 0.911750
vt 0.255349 0.906060
vt 0.250101 0.894031
vt 0.255662 0.891790
vn 0.4519 0.1375 0.8814
vn -0.9969 0.0607 -0.0497
vn 0.5424 -0.0171 -0.8399
vn 0.5116 0.0775 -0.8557
vn -0.9830 0.1768 -0.0490
vn 0.4232 -0.0984 0.9007
vn 0.5140 0.1041 -0.8515
vn -0.9924 -0.1123 -0.0495
vn 0.4267 0.1041 0.8984
vn 0.9177 -0.1096 -0.3818
vn -0.0000 0.2368 0.9716
vn -0.8008 0.0935 -0.5915
vn -0.8371 -0.0081 -0.5470
vn -0.0000 -0.1284 0.9917
vn 0.9002 0.2273 -0.3715
vn -0.9065 0.0138 -0.4219
vn -0.0000 0.0751 0.9972
vn 0.8929 0.0401 -0.4484
vn 0.8578 0.1375 -0.4953
vn -0.0000 0.0607 0.9982
vn -0.8659 -0.0171 -0.4999
vn -0.8801 0.0775 -0.4684
vn -0.0000 0.1768 0.9842
vn 0.8785 -0.0984 -0.4675
vn -0.8760 0.1041 -0.4709
vn -0.0000 -0.1123 0.9937
vn 0.8760 0.1041 -0.4709
usemtl BigPalette
s 1
f 1/1/1 3/2/1 2/3/1
f 2/4/2 3/5/2 4/6/2
f 4/7/3 3/8/3 1/9/3
f 4/7/4 1/9/4 5/10/4 7/11/4
f 2/4/5 4/6/5 7/12/5 6/13/5
f 1/14/6 2/15/6 6/16/6 5/17/6
f 7/11/7 5/10/7 8/18/7 10/19/7
f 6/20/8 7/21/8 10/22/8 9/23/8
f 5/24/9 6/25/9 9/26/9 8/27/9
f 11/28/10 13/29/10 12/30/10
f 12/31/11 13/32/11 14/33/11
f 14/34/12 13/35/12 11/36/12
f 14/34/13 11/36/13 15/37/13 17/38/13
f 12/39/14 14/40/14 17/41/14 16/42/14
f 11/28/15 12/30/15 16/43/15 15/44/15
f 17/38/16 15/37/16 18/45/16 20/46/16
f 16/47/17 17/48/17 20/49/17 19/50/17
f 15/44/18 16/43/18 19/51/18 18/52/18
f 21/53/19 23/54/19 22/55/19
f 22/56/20 23/57/20 24/58/20
f 24/59/21 23/60/21 21/61/21
f 24/59/22 21/61/22 25/62/22 27/63/22
f 22/56/23 24/58/23 27/64/23 26/65/23
f 21/53/24 22/55/24 26/66/24 25/67/24
f 27/63/25 25/62/25 28/68/25 30/69/25
f 26/70/26 27/71/26 30/72/26 29/73/26
f 25/67/27 26/66/27 29/74/27 28/75/27
