# Blender v2.92.0 OBJ File: 'pine_stump_mystic_0.blend'
# www.blender.org
mtllib pine_stump_mystic_0.mtl
o Pine1-2_Stump.001_Cylinder.024
v 0.490912 0.530772 0.004487
v 0.379969 0.416684 0.253616
v 0.503444 0.397109 -0.046760
v 0.102264 0.530772 0.357460
v 0.081875 0.463940 0.378036
v 0.069767 0.530772 0.346804
v -0.216219 0.511197 0.253616
v -0.207711 0.530771 0.248729
v -0.339694 0.530771 -0.046760
v -0.041998 -0.000000 0.595954
v -0.382969 -0.000000 0.350133
v -0.435864 0.000000 -0.405939
v 0.345029 0.530772 -0.367988
v 0.399592 0.530771 -0.345757
v 0.379969 0.416684 -0.347136
v 0.069767 0.530775 -0.454770
v -0.216219 0.511197 -0.347136
v -0.209841 0.530769 -0.342161
v 0.490912 0.530772 -0.129330
v -0.041998 0.000000 -0.587513
v -0.574472 -0.000000 0.009163
v 0.412414 -0.000000 0.414403
v 0.653502 -0.000000 0.009163
v 0.411389 0.000000 -0.385363
v 0.081875 0.463940 -0.471556
v 0.518922 0.530772 -0.063183
v 0.399592 0.530772 0.224358
v 0.345029 0.530772 0.249506
v 0.102263 0.530768 -0.467092
v 0.098045 0.530775 -0.382431
v 0.312995 0.530772 0.178753
v 0.315700 0.530772 -0.296073
v 0.098039 0.530772 0.274340
v 0.094813 0.571658 0.273281
v 0.098042 0.571658 0.274340
v 0.069769 0.592273 -0.454771
v -0.150395 0.530771 0.186613
v 0.094811 0.530772 0.273282
v -0.151475 0.530769 -0.281940
v 0.098048 0.592273 -0.382432
v 0.069770 0.571658 0.346804
v 0.434725 0.530772 -0.062842
v 0.419172 0.571658 -0.025260
v 0.434728 0.571658 -0.062842
v 0.345032 0.615826 -0.367988
v 0.399595 0.615825 -0.345757
v 0.340528 0.530771 -0.285957
v 0.315703 0.615826 -0.296073
v 0.101216 0.592266 -0.383633
v -0.254745 0.530771 -0.047011
v 0.312997 0.606657 0.178752
v 0.345032 0.606657 0.249505
v 0.339514 0.606656 0.166531
v 0.339511 0.530771 0.166531
v 0.340530 0.615825 -0.285958
v 0.490915 0.571659 -0.129330
v 0.126349 0.655109 -0.448383
v 0.102265 0.592266 -0.467093
v 0.490915 0.571659 0.004487
v 0.518925 0.571658 -0.063184
v 0.102267 0.571658 0.357459
v 0.503981 0.617300 -0.070362
v 0.399595 0.606656 0.224358
v 0.419169 0.530772 -0.025260
v 0.419378 0.571659 -0.099091
v 0.419375 0.530772 -0.099091
v 0.101213 0.530768 -0.383633
v 0.125522 0.655109 -0.382589
v 0.317731 0.655113 -0.370255
v 0.294609 0.655113 -0.313562
v 0.443552 0.617300 -0.070116
v 0.483877 0.617301 -0.117835
v 0.432535 0.617301 -0.096133
vt 0.303743 0.979909
vt 0.303072 0.982366
vt 0.302869 0.979472
vt 0.303973 0.984169
vt 0.303552 0.984423
vt 0.296366 0.985473
vt 0.296655 0.983501
vt 0.296822 0.985725
vt 0.296515 0.983513
vt 0.296221 0.980647
vt 0.294494 0.970875
vt 0.295972 0.974280
vt 0.293263 0.980397
vt 0.290617 0.987168
vt 0.290634 0.987549
vt 0.289914 0.987299
vt 0.290576 0.985165
vt 0.290740 0.982439
vt 0.290870 0.982492
vt 0.303740 0.978811
vt 0.303061 0.977436
vt 0.303789 0.977355
vt 0.291414 0.980477
vt 0.287025 0.984236
vt 0.287477 0.980397
vt 0.299159 0.977096
vt 0.299915 0.979722
vt 0.300213 0.983199
vt 0.300213 0.986581
vt 0.300359 0.983656
vt 0.300623 0.986740
vt 0.300213 0.979484
vt 0.300345 0.977096
vt 0.290119 0.985265
vt 0.287191 0.987346
vt 0.303726 0.979256
vt 0.303799 0.982034
vt 0.303831 0.982432
vt 0.296347 0.985697
vt 0.289650 0.980089
vt 0.287174 0.976532
vt 0.287025 0.972403
vt 0.290440 0.970302
vt 0.295972 0.977772
vt 0.290543 0.985473
vt 0.297210 0.950519
vt 0.296476 0.927241
vt 0.303266 0.944154
vt 0.294481 0.980420
vt 0.294740 0.980397
vt 0.294743 0.980420
vt 0.290967 0.985214
vt 0.296671 0.972540
vt 0.297845 0.970458
vt 0.298277 0.970975
vt 0.295866 0.982123
vt 0.295866 0.983830
vt 0.295468 0.983804
vt 0.296231 0.985010
vt 0.296106 0.985500
vt 0.295972 0.985037
vt 0.295681 0.982123
vt 0.295895 0.981781
vt 0.295930 0.982037
vt 0.291157 0.987236
vt 0.291174 0.987617
vt 0.292183 0.982806
vt 0.291660 0.982658
vt 0.292200 0.982621
vt 0.295468 0.983825
vt 0.296627 0.974824
vt 0.296028 0.972228
vt 0.304340 0.981948
vt 0.304323 0.982416
vt 0.294956 0.982276
vt 0.295439 0.982952
vt 0.294956 0.982985
vt 0.297932 0.977096
vt 0.295972 0.975117
vt 0.292505 0.982210
vt 0.293154 0.980398
vt 0.293154 0.982497
vt 0.291956 0.981045
vt 0.291447 0.980674
vt 0.291852 0.980397
vt 0.300464 0.976359
vt 0.300453 0.977053
vt 0.300436 0.976360
vt 0.293803 0.980688
vt 0.293154 0.981051
vt 0.293154 0.980397
vt 0.293822 0.980891
vt 0.294279 0.980397
vt 0.294471 0.980624
vt 0.293803 0.982903
vt 0.293803 0.981051
vt 0.304005 0.978803
vt 0.304294 0.979232
vt 0.303990 0.979247
vt 0.294471 0.982998
vt 0.293822 0.982993
vt 0.300508 0.971004
vt 0.300281 0.970302
vt 0.300783 0.970319
vt 0.292805 0.982869
vt 0.292347 0.982379
vt 0.298186 0.976398
vt 0.290934 0.985522
vt 0.304008 0.979901
vt 0.304291 0.982019
vt 0.295468 0.980557
vt 0.295646 0.981867
vt 0.292347 0.984953
vt 0.292060 0.984622
vt 0.292320 0.984604
vt 0.291643 0.982843
vt 0.294471 0.982520
vt 0.294956 0.982520
vt 0.304237 0.984161
vt 0.292347 0.981018
vt 0.294956 0.982028
vt 0.295468 0.980397
vt 0.295468 0.982243
vt 0.292918 0.983562
vt 0.292650 0.982939
vt 0.292918 0.982869
vt 0.291414 0.987049
vt 0.291414 0.982448
vt 0.291529 0.981184
vt 0.294666 0.983018
vt 0.294902 0.982520
vt 0.294902 0.983018
vt 0.292087 0.984971
vt 0.291758 0.984721
vt 0.291705 0.985229
vt 0.291777 0.984972
vt 0.292650 0.982869
vt 0.292347 0.983464
vt 0.292347 0.982967
vt 0.303951 0.935558
vt 0.303953 0.943419
vt 0.297333 0.950514
vt 0.287454 0.950693
vt 0.280688 0.943862
vt 0.280879 0.933947
vt 0.287851 0.927155
vt 0.287944 0.927069
vt 0.297535 0.927278
vt 0.302903 0.932925
vt 0.303953 0.934032
vt 0.294478 0.980397
vt 0.295866 0.983852
vt 0.303848 0.981963
vt 0.295439 0.982243
vt 0.292505 0.980397
vt 0.300744 0.977041
vt 0.293803 0.980868
vt 0.293154 0.983175
vt 0.304305 0.978913
vt 0.300264 0.970995
vt 0.295930 0.980397
vt 0.304340 0.977338
vt 0.296088 0.985723
vt 0.294956 0.980397
vt 0.292650 0.983485
vt 0.291355 0.985713
vt 0.294471 0.982520
vt 0.291986 0.985329
vt 0.292650 0.983562
vn 0.9220 -0.0602 0.3824
vn 0.9218 -0.0604 0.3829
vn 0.9222 -0.0601 0.3821
vn 0.4107 0.1578 0.8980
vn 0.4014 0.1554 0.9026
vn -0.3115 0.3554 0.8813
vn -0.8171 0.4463 0.3650
vn 0.0000 -1.0000 -0.0000
vn 0.3772 -0.0535 -0.9246
vn 0.3768 -0.0536 -0.9248
vn -0.3518 0.3367 -0.8734
vn 0.9104 -0.1522 -0.3846
vn 0.9106 -0.1520 -0.3842
vn -0.8498 0.3719 -0.3736
vn -0.4027 0.2735 -0.8735
vn -0.8848 0.3603 -0.2955
vn -0.8159 0.3527 0.4582
vn -0.5530 0.3252 0.7671
vn 0.3516 0.3195 0.8800
vn 0.8309 0.2554 0.4943
vn 0.8272 0.2411 -0.5076
vn 0.3983 0.1137 -0.9102
vn 0.3986 0.1141 -0.9100
vn 0.4043 0.1187 -0.9069
vn 0.9101 -0.1526 -0.3853
vn 0.9100 -0.1527 -0.3854
vn 0.9223 -0.0599 0.3818
vn 0.4133 0.1589 0.8966
vn 0.4124 0.1586 0.8971
vn -0.2905 0.3614 0.8860
vn 0.3774 -0.0534 -0.9245
vn -0.3500 0.1681 -0.9215
vn -0.3495 0.1682 -0.9217
vn -0.3508 0.1679 -0.9213
vn -0.3240 0.3099 -0.8939
vn -0.8372 0.4023 -0.3704
vn -0.8347 0.4082 0.3697
vn -0.2762 0.4680 0.8394
vn 0.4074 0.3562 0.8409
vn 0.8661 0.3740 0.3317
vn 0.9223 0.1037 -0.3724
vn 0.3980 0.1135 -0.9104
vn 0.0008 1.0000 -0.0020
vn 0.0000 1.0000 -0.0000
vn 0.0005 1.0000 -0.0013
vn 0.3115 -0.0000 -0.9503
vn 0.3116 -0.0000 -0.9502
vn -0.3736 -0.0000 -0.9276
vn 0.3736 -0.0000 0.9276
vn -0.9466 0.0000 -0.3224
vn -0.9466 0.0001 -0.3224
vn -0.9240 0.0001 -0.3825
vn -0.9237 0.0001 -0.3830
vn 0.3773 -0.0000 -0.9261
vn 0.3776 -0.0000 -0.9260
vn -0.3773 0.0000 0.9261
vn -0.3776 0.0000 0.9260
vn 0.3547 -0.0000 0.9350
vn 0.3545 -0.0000 0.9351
vn 0.9110 -0.0000 -0.4125
vn -0.6935 0.0000 0.7205
vn 0.1419 0.9799 0.1401
vn -0.9325 0.3609 -0.0117
vn 0.0006 1.0000 -0.0002
vn 0.0013 1.0000 -0.0005
vn 0.0019 1.0000 -0.0008
vn 0.0636 0.9861 -0.1535
vn 0.8954 0.2335 -0.3792
vn -0.1341 0.9891 0.0607
vn -0.1545 0.9766 0.1497
vn 0.3779 -0.0000 -0.9258
vn 0.9235 -0.0000 0.3836
vn 0.9237 -0.0001 0.3830
vn -0.9235 0.0000 -0.3836
vn 0.9208 -0.0001 -0.3899
vn 0.9211 -0.0001 -0.3893
vn 0.9240 -0.0001 0.3824
vn -0.9208 0.0001 0.3899
vn -0.9211 0.0001 0.3893
vn -0.9213 0.0000 0.3888
vn 0.9213 -0.0000 -0.3888
vn -0.3116 0.0000 0.9502
vn -0.4063 0.0000 -0.9137
vn -0.3546 -0.0000 -0.9350
vn 0.4063 -0.0000 0.9137
vn -0.3780 0.0000 0.9258
vn 0.7709 0.5539 0.3144
vn 0.3546 0.1937 -0.9147
vn -0.3748 0.1297 0.9180
vn -0.8954 0.2335 0.3792
vn 0.0040 0.1566 0.9876
vn -0.3837 0.1695 -0.9078
vn -0.3837 0.1694 -0.9078
vn 0.0011 1.0000 -0.0028
vn -0.3573 0.1661 -0.9191
vn 0.0828 0.9771 0.1960
vn 0.0002 1.0000 0.0000
vn 0.1081 0.9878 -0.1123
vn 0.8954 0.2336 -0.3792
vn -0.1396 0.9902 0.0071
vn -0.2076 0.9748 0.0812
vn 0.3748 0.1297 -0.9180
vn -0.3889 0.1923 0.9010
usemtl BigPalette
s 1
f 1/1/1 2/2/2 3/3/3
f 2/2/4 4/4/5 5/5/5
f 6/6/6 7/7/6 5/8/6
f 7/7/7 8/9/7 9/10/7
f 10/11/8 11/12/8 12/13/8
f 13/14/9 14/15/10 15/16/9
f 16/17/11 17/18/11 18/19/11
f 19/20/12 15/21/13 14/22/13
f 9/23/14 18/19/14 17/18/14
f 17/18/15 20/24/15 12/25/15
f 9/10/16 12/26/16 21/27/16
f 7/7/17 21/27/17 11/28/17
f 10/29/18 7/7/18 11/28/18
f 22/30/19 5/5/19 10/31/19
f 23/32/20 2/2/20 22/30/20
f 24/33/21 3/3/21 23/32/21
f 25/34/22 24/35/23 20/24/24
f 3/3/25 19/20/12 26/36/26
f 3/3/3 26/36/27 1/1/1
f 2/2/4 27/37/28 28/38/29
f 5/8/30 4/39/30 6/6/30
f 12/13/8 20/40/8 24/41/8
f 24/41/8 23/42/8 22/43/8
f 22/43/8 10/11/8 12/13/8
f 11/12/8 21/44/8 12/13/8
f 12/13/8 24/41/8 22/43/8
f 13/14/9 25/34/31 29/45/31
f 16/17/32 29/45/33 25/34/34
f 17/18/35 25/34/35 20/24/35
f 9/23/36 17/18/36 12/25/36
f 7/7/37 9/10/37 21/27/37
f 10/29/38 5/8/38 7/7/38
f 22/30/39 2/2/39 5/5/39
f 23/32/40 3/3/40 2/2/40
f 24/33/41 15/21/41 3/3/41
f 25/34/22 15/16/42 24/35/23
f 30/46/43 31/47/44 32/48/45
f 33/49/46 34/50/47 35/51/47
f 16/17/48 18/19/48 36/52/48
f 37/53/44 6/54/44 38/55/44
f 39/56/49 30/57/49 40/58/49
f 38/59/50 41/60/51 34/61/50
f 42/62/52 43/63/53 44/64/52
f 14/15/54 45/65/55 46/66/54
f 47/67/56 48/68/57 32/69/57
f 30/57/58 49/70/59 40/58/59
f 50/71/44 8/72/44 37/53/44
f 28/38/60 51/73/60 52/74/60
f 27/75/61 53/76/61 54/77/61
f 50/71/44 18/78/44 9/79/44
f 55/80/62 56/81/62 46/82/62
f 49/83/63 57/84/63 58/85/63
f 49/86/64 36/87/65 40/88/66
f 44/89/44 59/90/44 60/91/44
f 35/92/44 41/93/44 61/94/44
f 53/95/67 59/90/67 43/96/67
f 56/97/68 62/98/68 60/99/68
f 35/92/69 52/100/69 51/101/69
f 54/102/44 28/103/44 27/104/44
f 55/80/44 45/105/44 48/106/44
f 39/107/70 36/87/70 18/78/70
f 13/14/55 58/108/71 45/65/55
f 27/37/72 59/109/73 63/110/72
f 54/111/74 43/63/53 64/112/53
f 26/36/75 56/97/76 60/99/75
f 26/36/77 59/109/73 1/1/73
f 42/113/78 65/114/79 66/115/79
f 47/67/80 65/114/79 55/116/80
f 14/22/81 56/97/76 19/20/76
f 4/39/82 41/60/82 6/6/82
f 31/117/83 35/51/83 51/118/83
f 16/17/84 58/108/84 29/45/84
f 28/38/85 61/119/85 4/4/85
f 32/69/57 49/83/86 67/120/86
f 68/121/44 69/122/44 57/123/44
f 45/124/87 70/125/87 48/126/87
f 58/108/88 69/127/88 45/65/88
f 49/83/89 70/128/89 68/129/89
f 71/130/44 72/131/44 73/132/44
f 44/133/90 73/134/90 65/114/90
f 44/133/91 62/135/91 71/136/91
f 56/137/92 73/138/93 72/139/92
f 66/140/44 47/141/44 32/48/45
f 32/48/45 67/142/94 30/46/43
f 30/46/43 39/143/44 31/47/44
f 50/144/44 37/145/44 39/143/44
f 38/146/44 33/147/44 31/47/44
f 31/47/44 54/148/44 64/149/44
f 64/149/44 42/150/44 66/140/44
f 66/140/44 32/48/45 64/149/44
f 39/143/44 37/145/44 38/146/44
f 38/146/44 31/47/44 39/143/44
f 64/149/44 32/48/45 31/47/44
f 1/1/1 27/37/2 2/2/2
f 2/2/4 28/38/29 4/4/5
f 6/6/6 8/9/6 7/7/6
f 16/17/32 25/34/34 17/18/95
f 19/20/12 3/3/25 15/21/13
f 13/14/9 15/16/9 25/34/31
f 33/49/46 38/151/46 34/50/47
f 37/53/44 8/72/44 6/54/44
f 38/59/50 6/6/51 41/60/51
f 42/62/52 64/112/53 43/63/53
f 14/15/54 13/14/55 45/65/55
f 47/67/56 55/116/56 48/68/57
f 30/57/58 67/152/58 49/70/59
f 50/71/44 9/79/44 8/72/44
f 28/38/60 31/153/60 51/73/60
f 27/75/61 63/154/61 53/76/61
f 50/71/44 39/107/44 18/78/44
f 55/80/96 65/155/96 56/81/96
f 49/83/63 68/129/63 57/84/63
f 49/86/64 58/156/97 36/87/65
f 44/89/44 43/96/44 59/90/44
f 35/92/44 34/157/44 41/93/44
f 53/95/98 63/158/98 59/90/98
f 56/97/68 72/159/99 62/98/68
f 35/92/100 61/94/100 52/100/100
f 54/102/44 31/160/44 28/103/44
f 55/80/44 46/82/44 45/105/44
f 39/107/101 40/88/101 36/87/101
f 13/14/55 29/45/71 58/108/71
f 27/37/72 1/1/73 59/109/73
f 54/111/74 53/161/74 43/63/53
f 26/36/75 19/20/76 56/97/76
f 26/36/77 60/99/77 59/109/73
f 42/113/78 44/133/78 65/114/79
f 47/67/80 66/115/79 65/114/79
f 14/22/81 46/162/81 56/97/76
f 4/39/82 61/163/82 41/60/82
f 31/117/83 33/49/83 35/51/83
f 16/17/84 36/52/84 58/108/84
f 28/38/85 52/74/85 61/119/85
f 32/69/57 48/68/57 49/83/86
f 68/121/44 70/164/44 69/122/44
f 45/124/87 69/165/87 70/125/87
f 58/108/102 57/166/102 69/127/102
f 49/83/103 48/68/103 70/128/103
f 71/130/44 62/167/44 72/131/44
f 44/133/90 71/136/90 73/134/90
f 44/133/91 60/168/91 62/135/91
f 56/137/92 65/169/93 73/138/93
