# Blender v2.92.0 OBJ File: 'pine_trunk_1.blend'
# www.blender.org
mtllib pine_trunk_1.mtl
o Trunk_02_Cone.005
v -0.078599 0.002118 -0.498926
v 0.319514 0.002118 -0.200113
v 0.419438 0.002118 0.224214
v -0.016651 0.002118 0.382143
v -0.526226 0.002118 0.252809
v -0.352817 0.002118 -0.200112
v -0.016505 0.822885 -0.259496
v -0.227137 0.884683 -0.132762
v 0.194126 0.761086 -0.132762
v 0.214943 0.754978 0.128557
v -0.016505 0.822885 0.247441
v -0.227137 0.884683 0.120707
v -0.016735 0.406448 0.238816
v 0.229606 0.413955 -0.147100
v -0.015476 0.413955 -0.288599
v -0.260558 0.413955 -0.147100
v 0.276519 0.431117 0.123336
v -0.294831 0.432581 0.159232
vt 0.288636 0.985990
vt 0.288901 0.984092
vt 0.289613 0.983121
vt 0.290217 0.984511
vt 0.290344 0.986581
vt 0.289384 0.986581
vt 0.300484 0.949347
vt 0.300260 0.950432
vt 0.299742 0.950356
vt 0.299482 0.949387
vt 0.299722 0.948397
vt 0.300224 0.948378
vt 0.288929 0.980106
vt 0.288884 0.976983
vt 0.289172 0.977009
vt 0.289341 0.980257
vt 0.289687 0.977390
vt 0.289902 0.980205
vt 0.290911 0.980370
vt 0.290925 0.978961
vt 0.291443 0.979037
vt 0.291447 0.980453
vt 0.287435 0.979930
vt 0.287725 0.977731
vt 0.288125 0.977368
vt 0.287903 0.980220
vt 0.288636 0.976983
vt 0.288492 0.980112
vt 0.289913 0.977743
vt 0.290140 0.980122
vt 0.290219 0.980819
vt 0.290622 0.979507
vt 0.290825 0.982216
vt 0.287593 0.983025
vt 0.288636 0.983158
vt 0.286868 0.982847
vt 0.291667 0.982539
vt 0.289433 0.983121
vt 0.290219 0.983077
vt 0.288636 0.983121
vn 0.0000 -1.0000 0.0000
vn 0.2815 0.9596 0.0000
vn -0.9922 0.1070 -0.0643
vn -0.5001 0.0611 -0.8638
vn 0.9810 0.1456 -0.1280
vn 0.4089 0.0168 0.9124
vn -0.3788 0.0614 0.9234
vn 0.5133 0.0739 -0.8550
vn 0.5437 0.2716 -0.7942
vn -0.2324 0.3246 0.9169
vn 0.3235 0.3168 0.8916
vn 0.9460 0.2502 -0.2061
vn -0.6073 0.3436 -0.7163
vn -0.9064 0.3359 -0.2562
usemtl BigPalette
s 1
f 1/1/1 2/2/1 3/3/1 4/4/1 5/5/1 6/6/1
f 11/7/2 10/8/2 9/9/2 7/10/2 8/11/2 12/12/2
f 18/13/3 12/14/3 8/15/3 16/16/3
f 16/16/4 8/15/4 7/17/4 15/18/4
f 14/19/5 9/20/5 10/21/5 17/22/5
f 17/23/6 10/24/6 11/25/6 13/26/6
f 13/26/7 11/25/7 12/27/7 18/28/7
f 15/18/8 7/17/8 9/29/8 14/30/8
f 1/31/9 15/32/9 14/19/9 2/33/9
f 4/34/10 13/26/10 18/28/10 5/35/10
f 3/36/11 17/23/11 13/26/11 4/34/11
f 2/33/12 14/19/12 17/22/12 3/37/12
f 6/38/13 16/16/13 15/18/13 1/39/13
f 5/40/14 18/13/14 16/16/14 6/38/14
