# Blender v2.92.0 OBJ File: 'pine_dead_0.blend'
# www.blender.org
mtllib pine_dead_0.mtl
o Dead_Tree_01_Cone.000
v 0.000001 0.000000 -0.153547
v 0.000001 4.926543 -0.078558
v 0.132977 0.000000 -0.076773
v 0.068035 4.926543 -0.039279
v 0.132977 0.000000 0.076775
v 0.068035 4.926543 0.039281
v 0.000001 0.000000 0.153550
v 0.000001 4.926543 0.078560
v -0.132976 -0.000000 0.076775
v -0.068034 4.926543 0.039281
v -0.132976 -0.000000 -0.076773
v -0.068034 4.926543 -0.039279
v 0.000001 0.780181 -0.112116
v -0.035233 1.560362 -0.112116
v 0.000001 2.340543 -0.112117
v 0.000001 3.120724 -0.156180
v 0.097097 3.120724 -0.100122
v 0.097097 2.340543 -0.056058
v 0.061864 1.560362 -0.056058
v 0.097097 0.780181 -0.056058
v 0.097097 3.120724 0.011996
v 0.097097 2.340543 0.056060
v 0.061864 1.560362 0.056060
v 0.097097 0.780181 0.056060
v 0.000001 3.120724 0.068055
v 0.000001 2.340543 0.112119
v -0.035233 1.560362 0.112119
v 0.000001 0.780181 0.112119
v -0.097096 3.120724 0.011996
v -0.097096 2.340543 0.056060
v -0.132330 1.560362 0.056060
v -0.097096 0.780181 0.056060
v -0.097096 3.120724 -0.100121
v -0.097096 2.340543 -0.056058
v -0.132330 1.560362 -0.056058
v -0.097096 0.780181 -0.056058
v -0.012497 2.357905 -0.057619
v -0.234735 1.978215 -0.568957
v -0.035544 2.373628 -0.058721
v -0.240192 1.982426 -0.568586
v -0.034545 2.348923 -0.043032
v -0.240427 1.975670 -0.565994
v -0.049642 2.290902 -0.141335
v -0.087193 2.241961 -0.235436
v -0.124732 2.188635 -0.327304
v -0.161446 2.103291 -0.400410
v -0.197486 2.023771 -0.474172
v -0.205815 2.030188 -0.473994
v -0.172686 2.111750 -0.400468
v -0.138795 2.198905 -0.327189
v -0.103978 2.254431 -0.235007
v -0.069422 2.305220 -0.141327
v -0.205964 2.019902 -0.469349
v -0.172673 2.098288 -0.393694
v -0.138790 2.182570 -0.319010
v -0.104188 2.234539 -0.225764
v -0.069299 2.282480 -0.129550
v 0.086159 3.187776 -0.015846
v 0.632038 2.791676 -0.003915
v 0.076893 3.176440 0.007928
v 0.629213 2.789414 0.001962
v 0.095425 3.199112 0.007928
v 0.634863 2.793939 0.001962
v 0.180224 3.124331 -0.013858
v 0.260369 3.045379 -0.011869
v 0.343991 2.969908 -0.009881
v 0.452170 2.922271 -0.007892
v 0.554937 2.872289 -0.005904
v 0.550742 2.868483 0.002956
v 0.446779 2.916925 0.003951
v 0.337486 2.963493 0.004945
v 0.252326 3.037922 0.005939
v 0.171238 3.115208 0.006934
v 0.559105 2.876062 0.002956
v 0.457487 2.927530 0.003951
v 0.350494 2.976322 0.004945
v 0.268411 3.052836 0.005939
v 0.189210 3.133452 0.006934
v 0.009325 6.642156 -0.072489
v 0.049869 6.594226 -0.036244
v 0.049869 6.594226 0.036246
v 0.009325 6.642156 0.072491
v -0.031220 6.690085 0.036246
v -0.031220 6.690085 -0.036244
v 0.086159 5.473722 -0.015846
v 0.632038 5.077624 -0.003915
v 0.076893 5.462387 0.007928
v 0.629213 5.075361 0.001962
v 0.095425 5.485059 0.007928
v 0.634863 5.079886 0.001962
v 0.180224 5.410277 -0.013858
v 0.260369 5.331326 -0.011869
v 0.343991 5.255855 -0.009881
v 0.452170 5.208218 -0.007892
v 0.554937 5.158237 -0.005904
v 0.550742 5.154429 0.002956
v 0.446779 5.202873 0.003951
v 0.337486 5.249440 0.004945
v 0.252326 5.323869 0.005939
v 0.171238 5.401155 0.006934
v 0.559105 5.162009 0.002956
v 0.457487 5.213477 0.003951
v 0.350494 5.262269 0.004945
v 0.268411 5.338783 0.005939
v 0.189210 5.419399 0.006933
v -0.032391 6.040233 0.014388
v -0.507265 5.644134 0.283869
v -0.036616 6.028897 -0.010776
v -0.507851 5.641870 0.277374
v -0.052530 6.051569 -0.001279
v -0.512703 5.646396 0.280270
v -0.114186 5.976787 0.060883
v -0.184027 5.897836 0.100244
v -0.256854 5.822365 0.141387
v -0.350770 5.774728 0.195114
v -0.440038 5.724746 0.246067
v -0.440975 5.720940 0.236309
v -0.352209 5.769382 0.182181
v -0.258866 5.815950 0.125322
v -0.186246 5.890379 0.080830
v -0.117123 5.967665 0.038424
v -0.448157 5.728518 0.240595
v -0.361405 5.779987 0.187669
v -0.270036 5.828780 0.131988
v -0.200059 5.905293 0.089072
v -0.132556 5.985909 0.047633
vt 0.292847 0.979313
vt 0.292803 0.976079
vt 0.292954 0.976072
vt 0.292998 0.979306
vt 0.293608 0.988953
vt 0.293476 0.992172
vt 0.293181 0.992170
vt 0.293312 0.988952
vt 0.293031 0.992226
vt 0.293162 0.989008
vt 0.294146 0.988959
vt 0.294215 0.992167
vt 0.293920 0.992191
vt 0.293850 0.988984
vt 0.293772 0.992224
vt 0.293702 0.989016
vt 0.292551 0.979289
vt 0.292507 0.976054
vt 0.281000 0.936971
vt 0.281000 0.937333
vt 0.280649 0.937513
vt 0.280298 0.937330
vt 0.280298 0.936967
vt 0.280649 0.936788
vt 0.292386 0.992165
vt 0.292455 0.988941
vt 0.292750 0.988965
vt 0.292791 0.992199
vt 0.292387 0.985716
vt 0.292683 0.985741
vt 0.292481 0.982497
vt 0.292777 0.982522
vt 0.293810 0.976088
vt 0.293876 0.979311
vt 0.293728 0.979343
vt 0.293608 0.976132
vt 0.293806 0.982534
vt 0.293658 0.982566
vt 0.293898 0.985751
vt 0.293750 0.985783
vt 0.294215 0.976054
vt 0.294172 0.979286
vt 0.294102 0.982509
vt 0.294194 0.985727
vt 0.293203 0.976054
vt 0.293242 0.979294
vt 0.293092 0.979350
vt 0.292998 0.976131
vt 0.293226 0.982534
vt 0.293076 0.982589
vt 0.293211 0.985732
vt 0.293061 0.985788
vt 0.293608 0.976056
vt 0.293537 0.979296
vt 0.293521 0.982535
vt 0.293507 0.985734
vt 0.292901 0.988958
vt 0.292998 0.992189
vt 0.292833 0.985733
vt 0.292928 0.982515
vt 0.293788 0.986871
vt 0.292568 0.989327
vt 0.292144 0.989226
vt 0.293135 0.986721
vt 0.290060 0.974852
vt 0.288666 0.972370
vt 0.289150 0.972216
vt 0.290826 0.974627
vt 0.301941 0.972216
vt 0.301941 0.972407
vt 0.301589 0.972402
vt 0.301589 0.986492
vt 0.300520 0.988951
vt 0.300161 0.988897
vt 0.301038 0.986414
vt 0.301589 0.972367
vt 0.301578 0.975226
vt 0.300295 0.975066
vt 0.300115 0.972216
vt 0.300651 0.977770
vt 0.299556 0.977622
vt 0.299948 0.980370
vt 0.299033 0.980253
vt 0.300886 0.983496
vt 0.300147 0.983400
vt 0.288793 0.989427
vt 0.289050 0.986525
vt 0.290808 0.986046
vt 0.290826 0.988942
vt 0.287862 0.983971
vt 0.289354 0.983538
vt 0.287000 0.981305
vt 0.288250 0.980957
vt 0.288689 0.978003
vt 0.289721 0.977717
vt 0.293788 0.972557
vt 0.293783 0.975429
vt 0.292266 0.975104
vt 0.292046 0.972216
vt 0.292721 0.977966
vt 0.291427 0.977676
vt 0.291906 0.980588
vt 0.290826 0.980353
vt 0.292975 0.983801
vt 0.292097 0.983609
vt 0.299033 0.987308
vt 0.297960 0.990595
vt 0.297582 0.990620
vt 0.298450 0.987357
vt 0.286268 0.975475
vt 0.284937 0.972216
vt 0.285399 0.972266
vt 0.287000 0.975574
vt 0.301876 0.972590
vt 0.301589 0.972502
vt 0.301876 0.972407
vt 0.296413 0.987451
vt 0.295331 0.990767
vt 0.294953 0.990793
vt 0.295832 0.987501
vt 0.296413 0.972216
vt 0.296402 0.975307
vt 0.295050 0.975442
vt 0.294860 0.972410
vt 0.295464 0.978626
vt 0.294310 0.978727
vt 0.294752 0.981868
vt 0.293788 0.981961
vt 0.295701 0.984657
vt 0.294924 0.984733
vt 0.285058 0.990429
vt 0.285303 0.987454
vt 0.286982 0.987721
vt 0.287000 0.990812
vt 0.284169 0.984209
vt 0.285594 0.984409
vt 0.283345 0.980989
vt 0.284540 0.981173
vt 0.284959 0.978223
vt 0.285945 0.978375
vt 0.299033 0.972216
vt 0.299028 0.975248
vt 0.297674 0.975381
vt 0.297477 0.972407
vt 0.298095 0.978529
vt 0.296939 0.978629
vt 0.297378 0.981759
vt 0.296413 0.981850
vt 0.298319 0.984537
vt 0.297534 0.984613
vt 0.294215 0.992167
vt 0.293920 0.992191
vt 0.293476 0.992172
vt 0.293181 0.992170
vt 0.293772 0.992224
vt 0.292803 0.976079
vt 0.292954 0.976072
vt 0.293031 0.992226
vt 0.292507 0.976054
vt 0.290547 0.951156
vt 0.289873 0.935064
vt 0.290842 0.951208
vt 0.290990 0.951175
vt 0.290101 0.951210
vt 0.290251 0.951155
vt 0.299033 0.987308
vt 0.297960 0.990595
vt 0.297582 0.990620
vt 0.298450 0.987357
vt 0.286268 0.975475
vt 0.284937 0.972216
vt 0.285399 0.972266
vt 0.287000 0.975574
vt 0.301876 0.972590
vt 0.301589 0.972502
vt 0.301876 0.972407
vt 0.296413 0.987451
vt 0.295331 0.990767
vt 0.294953 0.990793
vt 0.295832 0.987501
vt 0.296413 0.972216
vt 0.296402 0.975307
vt 0.295050 0.975442
vt 0.294860 0.972410
vt 0.295464 0.978626
vt 0.294310 0.978727
vt 0.294752 0.981868
vt 0.293788 0.981961
vt 0.295701 0.984657
vt 0.294924 0.984733
vt 0.285058 0.990429
vt 0.285303 0.987454
vt 0.286982 0.987721
vt 0.287000 0.990812
vt 0.284169 0.984209
vt 0.285594 0.984409
vt 0.283345 0.980989
vt 0.284540 0.981173
vt 0.284959 0.978223
vt 0.285945 0.978375
vt 0.299033 0.972216
vt 0.299028 0.975248
vt 0.297674 0.975381
vt 0.297477 0.972407
vt 0.298095 0.978529
vt 0.296939 0.978629
vt 0.297378 0.981759
vt 0.296413 0.981850
vt 0.298319 0.984537
vt 0.297534 0.984613
vt 0.299033 0.987308
vt 0.297960 0.990595
vt 0.297582 0.990620
vt 0.298450 0.987357
vt 0.286268 0.975475
vt 0.284937 0.972216
vt 0.285399 0.972266
vt 0.287000 0.975574
vt 0.301876 0.972590
vt 0.301589 0.972502
vt 0.301876 0.972407
vt 0.296413 0.987451
vt 0.295331 0.990767
vt 0.294953 0.990793
vt 0.295832 0.987501
vt 0.296413 0.972216
vt 0.296402 0.975307
vt 0.295050 0.975442
vt 0.294860 0.972410
vt 0.295464 0.978626
vt 0.294310 0.978727
vt 0.294752 0.981868
vt 0.293788 0.981961
vt 0.295701 0.984657
vt 0.294924 0.984733
vt 0.285058 0.990429
vt 0.285303 0.987454
vt 0.286982 0.987721
vt 0.287000 0.990812
vt 0.284169 0.984209
vt 0.285594 0.984409
vt 0.283345 0.980989
vt 0.284540 0.981173
vt 0.284959 0.978223
vt 0.285945 0.978375
vt 0.299033 0.972216
vt 0.299028 0.975248
vt 0.297674 0.975381
vt 0.297477 0.972407
vt 0.298095 0.978529
vt 0.296939 0.978629
vt 0.297378 0.981759
vt 0.296413 0.981850
vt 0.298319 0.984537
vt 0.297534 0.984613
vn 0.4997 0.0372 -0.8654
vn 1.0000 0.0081 0.0000
vn 0.9999 0.0135 -0.0000
vn 1.0000 0.0079 0.0000
vn 0.5000 -0.0050 0.8660
vn -0.5000 -0.0050 0.8660
vn -1.0000 0.0079 0.0000
vn -0.9998 0.0185 0.0000
vn -1.0000 0.0081 0.0000
vn -0.4997 0.0372 -0.8654
vn 0.0000 -1.0000 0.0000
vn -0.4995 0.0459 -0.8651
vn -0.4999 -0.0226 -0.8658
vn -0.4999 0.0226 -0.8658
vn -0.4994 -0.0489 -0.8650
vn -0.9989 0.0459 0.0000
vn -0.9990 -0.0451 0.0000
vn -0.9990 0.0451 0.0000
vn -1.0000 0.0000 0.0000
vn -0.4995 0.0459 0.8651
vn -0.4999 -0.0226 0.8658
vn -0.4999 0.0226 0.8658
vn -0.4994 0.0489 0.8650
vn 0.4995 0.0459 0.8651
vn 0.4994 0.0279 0.8659
vn 0.5000 0.0408 0.8651
vn 0.4999 0.0226 0.8658
vn 0.4999 -0.0226 0.8658
vn 0.4994 0.0489 0.8650
vn 0.9989 0.0459 -0.0000
vn 0.9990 0.0455 -0.0000
vn 0.9990 0.0451 -0.0000
vn 0.9990 -0.0451 0.0000
vn 1.0000 0.0000 0.0000
vn 0.4995 0.0459 -0.8651
vn 0.5000 0.0408 -0.8651
vn 0.4994 0.0279 -0.8659
vn 0.4999 0.0226 -0.8658
vn 0.4999 -0.0226 -0.8658
vn 0.4994 -0.0489 -0.8650
vn 0.5053 0.6828 -0.5276
vn -0.9513 0.1382 0.2757
vn -0.9512 0.1385 0.2758
vn -0.9512 0.1383 0.2757
vn -0.3154 -0.3303 -0.8896
vn 0.4963 -0.8425 0.2093
vn 0.5448 -0.7561 0.3626
vn 0.4984 -0.8345 0.2351
vn 0.5096 -0.8180 0.2667
vn 0.5755 -0.6601 0.4827
vn 0.5732 -0.6818 0.4546
vn -0.9512 0.1375 0.2764
vn -0.9512 0.1378 0.2762
vn -0.9512 0.1381 0.2760
vn -0.9512 0.1380 0.2760
vn -0.9513 0.1379 0.2758
vn 0.4363 0.5975 -0.6728
vn 0.4900 0.6778 -0.5481
vn 0.4773 0.6613 -0.5787
vn 0.3733 0.5067 -0.7771
vn 0.3929 0.5230 -0.7564
vn -0.6048 -0.5925 -0.5321
vn 0.0062 -0.0067 1.0000
vn 0.0058 -0.0068 1.0000
vn 0.0061 -0.0067 1.0000
vn 0.6251 -0.7805 0.0000
vn 0.6193 0.5785 -0.5308
vn 0.4853 0.7021 -0.5211
vn 0.6042 0.6001 -0.5243
vn 0.5776 0.6263 -0.5236
vn 0.3555 0.7881 -0.5025
vn 0.3841 0.7688 -0.5113
vn 0.0066 -0.0059 1.0000
vn 0.0064 -0.0061 1.0000
vn 0.0061 -0.0064 1.0000
vn 0.0062 -0.0064 1.0000
vn 0.0064 -0.0065 1.0000
vn 0.0064 -0.0066 1.0000
vn -0.4695 -0.7136 -0.5199
vn -0.5910 -0.6132 -0.5241
vn -0.5642 -0.6388 -0.5230
vn -0.3417 -0.7941 -0.5026
vn -0.3670 -0.7760 -0.5130
vn -0.5681 0.0097 0.8229
vn 0.9999 0.0109 -0.0000
vn -0.9998 0.0209 0.0000
vn 0.5721 0.0037 -0.8202
vn 0.5721 0.0037 0.8202
vn -0.5681 0.0097 -0.8229
vn 0.7635 0.6458 0.0000
vn -0.6048 -0.5925 -0.5322
vn 0.6252 -0.7805 -0.0001
vn 0.5776 0.6263 -0.5237
vn 0.3555 0.7881 -0.5026
vn -0.5642 -0.6388 -0.5231
vn 0.7920 -0.5925 0.1470
vn -0.5177 -0.0067 -0.8555
vn -0.5174 -0.0068 -0.8557
vn -0.5176 -0.0067 -0.8556
vn -0.5368 -0.7805 0.3204
vn -0.2599 0.5785 0.7732
vn -0.1497 0.7021 0.6961
vn -0.2502 0.6001 0.7598
vn -0.2276 0.6263 0.7456
vn -0.0478 0.7881 0.6137
vn -0.0678 0.7688 0.6359
vn -0.5181 -0.0059 -0.8553
vn -0.5179 -0.0061 -0.8554
vn -0.5177 -0.0064 -0.8555
vn -0.5178 -0.0064 -0.8555
vn -0.5179 -0.0065 -0.8554
vn -0.5179 -0.0066 -0.8554
vn 0.6696 -0.7136 0.2059
vn 0.7761 -0.6132 0.1472
vn 0.7526 -0.6388 0.1600
vn 0.5510 -0.7941 0.2565
vn 0.5780 -0.7760 0.2525
usemtl BigPalette
s 1
f 16/1/1 2/2/1 4/3/1 17/4/1
f 17/5/2 4/6/3 6/7/3 21/8/4
f 21/8/5 6/7/5 8/9/5 25/10/5
f 25/11/6 8/12/6 10/13/6 29/14/6
f 29/14/7 10/13/8 12/15/8 33/16/9
f 33/17/10 12/18/10 2/2/10 16/1/10
f 1/19/11 3/20/11 5/21/11 7/22/11 9/23/11 11/24/11
f 11/25/12 36/26/12 13/27/12 1/28/12
f 36/26/13 35/29/13 14/30/13 13/27/13
f 35/29/14 34/31/14 15/32/14 14/30/14
f 34/31/15 33/17/15 16/1/15 15/32/15
f 9/33/16 32/34/16 36/35/16 11/36/16
f 32/34/17 31/37/17 35/38/17 36/35/17
f 31/37/18 30/39/18 34/40/18 35/38/18
f 30/39/19 29/14/7 33/16/9 34/40/19
f 7/41/20 28/42/20 32/34/20 9/33/20
f 28/42/21 27/43/21 31/37/21 32/34/21
f 27/43/22 26/44/22 30/39/22 31/37/22
f 26/44/23 25/11/23 29/14/23 30/39/23
f 5/45/24 24/46/25 28/47/26 7/48/24
f 24/46/25 23/49/27 27/50/27 28/47/26
f 23/49/28 22/51/28 26/52/28 27/50/28
f 22/51/29 21/8/29 25/10/29 26/52/29
f 3/53/30 20/54/31 24/46/31 5/45/30
f 20/54/31 19/55/32 23/49/32 24/46/31
f 19/55/33 18/56/33 22/51/33 23/49/33
f 18/56/34 17/5/2 21/8/4 22/51/34
f 1/28/35 13/27/36 20/57/37 3/58/35
f 13/27/36 14/30/38 19/59/38 20/57/37
f 14/30/39 15/32/39 18/60/39 19/59/39
f 15/32/40 16/1/40 17/4/40 18/60/40
f 47/61/41 38/62/41 40/63/41 48/64/41
f 48/65/42 40/66/43 42/67/43 53/68/44
f 40/69/45 38/70/45 42/71/45
f 53/72/46 42/73/46 38/74/46 47/75/46
f 41/76/47 57/77/47 43/78/47 37/79/47
f 57/77/48 56/80/48 44/81/48 43/78/48
f 56/80/49 55/82/49 45/83/49 44/81/49
f 55/82/50 54/84/50 46/85/50 45/83/50
f 54/84/51 53/72/51 47/75/51 46/85/51
f 39/86/52 52/87/53 57/88/53 41/89/52
f 52/87/53 51/90/54 56/91/54 57/88/53
f 51/90/54 50/92/55 55/93/55 56/91/54
f 50/92/55 49/94/56 54/95/56 55/93/55
f 49/94/56 48/65/42 53/68/44 54/95/56
f 37/96/57 43/97/57 52/98/57 39/99/57
f 43/97/58 44/100/58 51/101/58 52/98/58
f 44/100/59 45/102/59 50/103/59 51/101/59
f 45/102/60 46/104/60 49/105/60 50/103/60
f 46/104/61 47/61/61 48/64/61 49/105/61
f 68/106/62 59/107/62 61/108/62 69/109/62
f 69/110/63 61/111/64 63/112/64 74/113/65
f 61/114/66 59/115/66 63/116/66
f 74/117/67 63/118/67 59/119/67 68/120/67
f 62/121/68 78/122/68 64/123/68 58/124/68
f 78/122/69 77/125/69 65/126/69 64/123/69
f 77/125/70 76/127/70 66/128/70 65/126/70
f 76/127/71 75/129/71 67/130/71 66/128/71
f 75/129/72 74/117/72 68/120/72 67/130/72
f 60/131/73 73/132/74 78/133/74 62/134/73
f 73/132/74 72/135/75 77/136/75 78/133/74
f 72/135/75 71/137/76 76/138/76 77/136/75
f 71/137/76 70/139/77 75/140/78 76/138/76
f 70/139/77 69/110/63 74/113/65 75/140/78
f 58/141/79 64/142/79 73/143/79 60/144/79
f 64/142/80 65/145/80 72/146/80 73/143/80
f 65/145/81 66/147/81 71/148/81 72/146/81
f 66/147/82 67/149/82 70/150/82 71/148/82
f 67/149/83 68/106/83 69/109/83 70/150/83
f 10/13/84 8/12/84 82/151/84 83/152/84
f 6/7/3 4/6/3 80/153/85 81/154/85
f 12/15/8 10/13/8 83/152/86 84/155/86
f 4/3/87 2/2/87 79/156/87 80/157/87
f 8/9/88 6/7/88 81/154/88 82/158/88
f 2/2/89 12/18/89 84/159/89 79/156/89
f 80/160/90 79/161/90 84/162/90 83/163/90 82/164/90 81/165/90
f 95/166/91 86/167/91 88/168/91 96/169/91
f 96/170/63 88/171/64 90/172/64 101/173/65
f 88/174/92 86/175/92 90/176/92
f 101/177/67 90/178/67 86/179/67 95/180/67
f 89/181/68 105/182/68 91/183/68 85/184/68
f 105/182/69 104/185/69 92/186/69 91/183/69
f 104/185/93 103/187/93 93/188/93 92/186/93
f 103/187/94 102/189/94 94/190/94 93/188/94
f 102/189/72 101/177/72 95/180/72 94/190/72
f 87/191/73 100/192/74 105/193/74 89/194/73
f 100/192/74 99/195/75 104/196/75 105/193/74
f 99/195/75 98/197/76 103/198/76 104/196/75
f 98/197/76 97/199/77 102/200/78 103/198/76
f 97/199/77 96/170/63 101/173/65 102/200/78
f 85/201/79 91/202/79 100/203/79 87/204/79
f 91/202/80 92/205/80 99/206/80 100/203/80
f 92/205/95 93/207/95 98/208/95 99/206/95
f 93/207/82 94/209/82 97/210/82 98/208/82
f 94/209/83 95/166/83 96/169/83 97/210/83
f 116/211/96 107/212/96 109/213/96 117/214/96
f 117/215/97 109/216/98 111/217/98 122/218/99
f 109/219/100 107/220/100 111/221/100
f 122/222/101 111/223/101 107/224/101 116/225/101
f 110/226/102 126/227/102 112/228/102 106/229/102
f 126/227/103 125/230/103 113/231/103 112/228/103
f 125/230/104 124/232/104 114/233/104 113/231/104
f 124/232/105 123/234/105 115/235/105 114/233/105
f 123/234/106 122/222/106 116/225/106 115/235/106
f 108/236/107 121/237/108 126/238/108 110/239/107
f 121/237/108 120/240/109 125/241/109 126/238/108
f 120/240/109 119/242/109 124/243/110 125/241/109
f 119/242/109 118/244/111 123/245/112 124/243/110
f 118/244/111 117/215/97 122/218/99 123/245/112
f 106/246/113 112/247/113 121/248/113 108/249/113
f 112/247/114 113/250/114 120/251/114 121/248/114
f 113/250/115 114/252/115 119/253/115 120/251/115
f 114/252/116 115/254/116 118/255/116 119/253/116
f 115/254/117 116/211/117 117/214/117 118/255/117
