# Blender v2.92.0 OBJ File: 'pine_trunk_2.blend'
# www.blender.org
mtllib pine_trunk_2.mtl
o Trunk_03_Cylinder.008
v -0.837373 -0.000000 -0.193877
v 0.837373 0.000000 -0.112586
v -0.837373 -0.136853 -0.114865
v 0.837373 -0.136853 -0.033574
v -0.837373 -0.136853 0.043159
v 0.837373 -0.136853 0.124451
v -0.837373 -0.000000 0.122172
v 0.837373 0.000000 0.203463
v -0.837373 0.136853 0.043159
v 0.837373 0.136853 0.124451
v -0.837373 0.136853 -0.114865
v 0.837373 0.136853 -0.033574
v -0.279124 -0.000000 -0.296215
v 0.279124 0.000000 -0.140310
v 0.279124 -0.167936 -0.043352
v -0.279124 -0.167936 -0.199257
v 0.279124 -0.167936 0.150564
v -0.279124 -0.167936 -0.005341
v 0.279124 0.000000 0.247521
v -0.279124 -0.000000 0.091617
v 0.279124 0.167936 0.150564
v -0.279124 0.167936 -0.005341
v 0.279124 0.167936 -0.043352
v -0.279124 0.167936 -0.199257
v -0.837373 -0.000000 -0.229768
v -0.837373 -0.167936 -0.132811
v 0.837373 -0.167936 -0.051519
v 0.837373 0.000000 -0.148477
v -0.837373 -0.167936 0.061105
v 0.837373 -0.167936 0.142396
v -0.837373 -0.000000 0.158063
v 0.837373 0.000000 0.239354
v -0.837373 0.167936 0.061105
v 0.837373 0.167936 0.142396
v -0.837373 0.167936 -0.132811
v 0.837373 0.167936 -0.051519
v -0.800886 -0.000000 -0.193877
v -0.800886 -0.136853 -0.114865
v 0.800886 -0.136853 -0.033574
v 0.800886 0.000000 -0.112586
v -0.800886 -0.136853 0.043159
v 0.800886 -0.136853 0.124451
v -0.800886 -0.000000 0.122172
v 0.800886 0.000000 0.203463
v -0.800886 0.136853 0.043159
v 0.800886 0.136853 0.124451
v -0.800886 0.136853 -0.114865
v 0.800886 0.136853 -0.033574
v 0.479403 0.052204 0.206085
v 0.547505 -0.011957 0.481568
v 0.511575 -0.012925 0.188367
v 0.562541 -0.042397 0.473287
v 0.439136 -0.010794 0.206770
v 0.528684 -0.041401 0.481889
v 0.511419 -0.012083 0.339545
v 0.535023 -0.059867 0.326546
v 0.481876 -0.058304 0.340049
v -0.629761 0.096597 0.003873
v -0.474147 0.337149 0.054515
v -0.655426 0.132140 -0.056696
v -0.486143 0.353761 0.026205
v -0.592355 0.092185 -0.060718
v -0.456663 0.335087 0.024325
v -0.549003 0.224698 -0.002267
v -0.567833 0.250776 -0.046706
v -0.521558 0.221462 -0.049656
v -0.423011 0.083563 -0.190015
v -0.267397 0.039861 -0.431924
v -0.448677 0.014067 -0.200124
v -0.279393 0.007379 -0.436649
v -0.385605 0.025392 -0.161597
v -0.249913 0.012672 -0.418642
v -0.342253 0.029621 -0.306368
v -0.361083 -0.021367 -0.313785
v -0.314809 -0.013058 -0.285519
vt 0.299484 0.969032
vt 0.297904 0.969097
vt 0.298036 0.966384
vt 0.299616 0.966320
vt 0.288851 0.972834
vt 0.289721 0.975453
vt 0.287666 0.977792
vt 0.286797 0.975173
vt 0.286551 0.978796
vt 0.285682 0.976177
vt 0.291539 0.975266
vt 0.289961 0.975167
vt 0.289961 0.970463
vt 0.291539 0.970562
vt 0.293271 0.987920
vt 0.293333 0.985942
vt 0.293436 0.985936
vt 0.293374 0.987913
vt 0.289721 0.968112
vt 0.291299 0.968211
vt 0.299616 0.973711
vt 0.298036 0.973775
vt 0.289407 0.984558
vt 0.289277 0.982620
vt 0.289379 0.982634
vt 0.289510 0.984572
vt 0.298677 0.993856
vt 0.297018 0.993329
vt 0.296886 0.988651
vt 0.298545 0.989178
vt 0.295004 0.985939
vt 0.296886 0.986065
vt 0.295702 0.990134
vt 0.293820 0.990007
vt 0.294564 0.969478
vt 0.292914 0.968672
vt 0.292673 0.966320
vt 0.294324 0.967126
vt 0.294564 0.974181
vt 0.292914 0.973375
vt 0.287607 0.983041
vt 0.285682 0.982864
vt 0.286866 0.978796
vt 0.288791 0.978972
vt 0.294324 0.976533
vt 0.292673 0.975727
vt 0.288791 0.987106
vt 0.286866 0.986929
vt 0.288234 0.966320
vt 0.289721 0.968236
vt 0.287666 0.970575
vt 0.286180 0.968659
vt 0.297018 0.985939
vt 0.298677 0.986465
vt 0.296886 0.994205
vt 0.295004 0.994079
vt 0.297536 0.979322
vt 0.295868 0.977403
vt 0.295868 0.976533
vt 0.297915 0.978887
vt 0.293441 0.983153
vt 0.293441 0.979322
vt 0.293820 0.978887
vt 0.293820 0.983589
vt 0.297536 0.983154
vt 0.297915 0.983590
vt 0.291770 0.977403
vt 0.291770 0.976533
vt 0.295868 0.985068
vt 0.295868 0.985939
vt 0.290100 0.979316
vt 0.289721 0.978880
vt 0.294199 0.983149
vt 0.293820 0.983584
vt 0.290100 0.983147
vt 0.289721 0.983582
vt 0.294199 0.979317
vt 0.293820 0.978881
vt 0.291770 0.985066
vt 0.291770 0.985936
vt 0.296498 0.932611
vt 0.299911 0.928690
vt 0.303325 0.932603
vt 0.303325 0.940436
vt 0.299911 0.944357
vt 0.296498 0.940444
vt 0.292141 0.936076
vt 0.292141 0.943902
vt 0.288727 0.947828
vt 0.285314 0.943926
vt 0.285314 0.936099
vt 0.288727 0.932174
vt 0.289175 0.978802
vt 0.289113 0.982633
vt 0.289010 0.982627
vt 0.289072 0.978796
vt 0.289720 0.978796
vt 0.289612 0.981006
vt 0.289510 0.981016
vt 0.289617 0.978805
vt 0.293168 0.991968
vt 0.293060 0.988156
vt 0.293163 0.988146
vt 0.293271 0.991959
vt 0.293601 0.985936
vt 0.293539 0.987913
vt 0.293436 0.987920
vt 0.293498 0.985942
vt 0.289407 0.978796
vt 0.289510 0.978809
vt 0.293333 0.991750
vt 0.293436 0.991744
vt 0.289720 0.984819
vt 0.289617 0.984828
vt 0.289277 0.984561
vt 0.289175 0.984554
vt 0.293601 0.991744
vt 0.293498 0.991750
vt 0.293168 0.985946
vt 0.293271 0.985936
vt 0.298522 0.980097
vt 0.298916 0.983448
vt 0.298530 0.983422
vt 0.297915 0.980055
vt 0.289010 0.982133
vt 0.288970 0.985701
vt 0.288868 0.985898
vt 0.288850 0.982443
vt 0.298570 0.983620
vt 0.298677 0.989200
vt 0.299273 0.985939
vt 0.299625 0.986106
vt 0.299230 0.989463
vt 0.298872 0.992609
vt 0.299625 0.992967
vt 0.289010 0.978796
vt 0.288791 0.979218
vt 0.298916 0.976590
vt 0.298090 0.976533
vt 0.288260 0.990137
vt 0.288655 0.993109
vt 0.288275 0.993358
vt 0.287663 0.990527
vt 0.286671 0.989891
vt 0.287283 0.987106
vt 0.287307 0.987565
vt 0.286709 0.990612
vt 0.287663 0.987362
vt 0.287267 0.990294
vt 0.286901 0.993717
vt 0.287663 0.993283
vt 0.298916 0.983003
vt 0.298979 0.980232
vt 0.299153 0.980857
vt 0.299153 0.983855
vt 0.288655 0.987106
vt 0.287842 0.987637
vt 0.289256 0.990097
vt 0.289650 0.993046
vt 0.289268 0.993294
vt 0.288655 0.990485
vt 0.285682 0.989918
vt 0.286293 0.987106
vt 0.286313 0.987555
vt 0.285714 0.990623
vt 0.286671 0.987360
vt 0.286276 0.990318
vt 0.285906 0.993756
vt 0.286671 0.993340
vt 0.298916 0.979352
vt 0.298980 0.976533
vt 0.299154 0.977178
vt 0.299154 0.980232
vt 0.289650 0.987106
vt 0.288832 0.987635
vn -0.0127 -0.5000 -0.8660
vn 0.0000 -1.0000 0.0000
vn 0.0127 -0.5000 0.8660
vn 0.0127 0.5000 0.8660
vn 0.0000 -0.5000 0.8660
vn -0.0000 1.0000 0.0000
vn -0.0127 0.5000 -0.8660
vn -0.1025 0.4974 -0.8615
vn 0.2351 0.4860 -0.8418
vn 0.1025 0.4974 0.8615
vn -0.2351 0.4860 0.8418
vn 0.1025 -0.4974 0.8615
vn -0.2351 -0.4860 0.8418
vn -0.1025 -0.4974 -0.8615
vn 0.2351 -0.4860 -0.8418
vn -1.0000 -0.0000 -0.0000
vn 1.0000 -0.0000 0.0000
vn 0.0000 0.5000 0.8660
vn 0.0000 -0.5000 -0.8660
vn -0.0000 0.5000 -0.8660
vn 0.8506 0.4791 -0.2166
vn 0.0008 -0.9930 0.1181
vn 0.2398 -0.1428 0.9603
vn -0.8230 0.5283 0.2086
vn -0.7626 0.4920 0.4199
vn -0.1050 -0.9469 -0.3039
vn 0.8964 0.4432 -0.0015
vn -0.8122 0.2830 0.5102
vn 0.2228 0.4393 -0.8702
vn 0.5294 0.8104 0.2512
vn 0.6451 -0.6401 0.4173
vn 0.7569 -0.4547 0.4694
vn -0.0071 0.0891 -0.9960
vn -0.6876 0.4604 0.5615
vn -0.8122 0.3660 -0.4543
vn 0.2228 -0.9716 -0.0792
vn 0.5294 -0.0726 -0.8453
vn 0.6451 0.6277 0.4358
vn 0.7569 0.6061 0.2444
vn -0.0071 -0.9562 0.2927
vn -0.6876 0.3467 -0.6380
usemtl BigPalette
s 1
f 14/1/1 28/2/1 27/3/1 15/4/1
f 15/5/2 27/6/2 30/7/2 17/8/2
f 17/8/3 30/7/3 32/9/3 19/10/3
f 19/11/4 32/12/4 34/13/4 21/14/4
f 11/15/5 1/16/5 37/17/5 47/18/5
f 21/14/6 34/13/6 36/19/6 23/20/6
f 23/21/7 36/22/7 28/2/7 14/1/7
f 6/23/6 4/24/6 39/25/6 42/26/6
f 35/27/8 24/28/8 13/29/8 25/30/8
f 24/31/9 23/32/9 14/33/9 13/34/9
f 33/35/6 22/36/6 24/37/6 35/38/6
f 22/36/6 21/14/6 23/20/6 24/37/6
f 31/39/10 20/40/10 22/36/10 33/35/10
f 20/41/11 19/42/11 21/43/11 22/44/11
f 29/45/12 18/46/12 20/40/12 31/39/12
f 18/47/13 17/48/13 19/42/13 20/41/13
f 26/49/2 16/50/2 18/51/2 29/52/2
f 16/50/2 15/5/2 17/8/2 18/51/2
f 25/30/14 13/29/14 16/53/14 26/54/14
f 13/34/15 14/33/15 15/55/15 16/56/15
f 3/57/16 1/58/16 25/59/16 26/60/16
f 2/61/17 4/62/17 27/63/17 28/64/17
f 5/65/16 3/57/16 26/60/16 29/66/16
f 4/62/17 6/67/17 30/68/17 27/63/17
f 7/69/16 5/65/16 29/66/16 31/70/16
f 6/67/17 8/71/17 32/72/17 30/68/17
f 9/73/16 7/69/16 31/70/16 33/74/16
f 8/71/17 10/75/17 34/76/17 32/72/17
f 11/77/16 9/73/16 33/74/16 35/78/16
f 10/75/17 12/79/17 36/80/17 34/76/17
f 1/58/16 11/77/16 35/78/16 25/59/16
f 12/79/17 2/61/17 28/64/17 36/80/17
f 39/81/17 40/82/17 48/83/17 46/84/17 44/85/17 42/86/17
f 37/87/16 38/88/16 41/89/16 43/90/16 45/91/16 47/92/16
f 1/93/18 3/94/18 38/95/18 37/96/18
f 10/97/19 8/98/19 44/99/19 46/100/19
f 5/101/20 7/102/20 43/103/20 41/104/20
f 2/105/5 12/106/5 48/107/5 40/108/5
f 4/24/18 2/109/18 40/110/18 39/25/18
f 9/111/2 11/15/2 47/18/2 45/112/2
f 8/98/20 6/113/20 42/114/20 44/99/20
f 3/94/6 5/115/6 41/116/6 38/95/6
f 12/106/2 10/117/2 46/118/2 48/107/2
f 7/102/19 9/119/19 45/120/19 43/103/19
f 55/121/21 50/122/21 52/123/21 56/124/21
f 56/125/22 52/126/22 54/127/22 57/128/22
f 52/123/23 50/122/23 54/129/23
f 57/130/24 54/131/24 50/132/24 55/133/24
f 53/134/25 57/130/25 55/133/25 49/135/25
f 51/136/26 56/125/26 57/128/26 53/137/26
f 49/138/27 55/121/27 56/124/27 51/139/27
f 64/140/28 59/141/28 61/142/28 65/143/28
f 65/144/29 61/145/29 63/146/29 66/147/29
f 61/145/30 59/148/30 63/146/30
f 66/147/31 63/146/31 59/148/31 64/149/31
f 62/150/32 66/147/32 64/149/32 58/151/32
f 60/152/33 65/153/33 66/154/33 62/155/33
f 58/156/34 64/140/34 65/143/34 60/157/34
f 73/158/35 68/159/35 70/160/35 74/161/35
f 74/162/36 70/163/36 72/164/36 75/165/36
f 70/163/37 68/166/37 72/164/37
f 75/165/38 72/164/38 68/166/38 73/167/38
f 71/168/39 75/165/39 73/167/39 67/169/39
f 69/170/40 74/171/40 75/172/40 71/173/40
f 67/174/41 73/158/41 74/161/41 69/175/41
