# Blender v2.92.0 OBJ File: 'stone_small_4.blend'
# www.blender.org
mtllib stone_small_4.mtl
o Rock_03_Sphere.010
v -0.516101 0.446576 -0.083711
v 0.374211 0.626332 -0.069362
v 0.339403 0.546062 -0.383930
v -0.524903 0.575980 -0.086264
v -0.426336 0.512193 0.270473
v -0.259613 0.586153 0.431330
v -0.074175 0.542556 -0.473556
v -0.440329 0.680467 -0.167637
v -0.210191 0.864910 -0.146003
v -0.055734 0.223824 0.537089
v 0.262960 0.627898 -0.414239
v 0.358343 0.671008 0.216264
v -0.039562 0.845020 0.251228
v 0.120654 0.683128 -0.454481
v 0.445690 0.401315 -0.336629
v 0.255709 0.012766 -0.313330
v 0.440437 0.403139 0.314071
v 0.504421 0.200597 0.122836
v 0.369459 -0.049110 0.103123
v -0.435069 0.013122 0.119302
v -0.420702 0.059100 0.184393
v -0.061044 0.162661 0.520152
v -0.108882 0.115546 -0.409980
v -0.159381 0.099117 -0.365004
v -0.335374 -0.092177 0.046855
v 0.154084 -0.108384 0.309694
v -0.145377 -0.143596 0.093144
vt 0.295807 0.821662
vt 0.295208 0.816744
vt 0.299219 0.815716
vt 0.298493 0.821402
vt 0.299049 0.831456
vt 0.298166 0.832190
vt 0.297752 0.828091
vt 0.288330 0.812669
vt 0.292634 0.814679
vt 0.291569 0.815861
vt 0.287069 0.814272
vt 0.300955 0.827314
vt 0.305659 0.828203
vt 0.305853 0.828750
vt 0.304067 0.832016
vt 0.301832 0.831372
vt 0.025240 0.820741
vt 0.023735 0.818035
vt 0.023822 0.816307
vt 0.026958 0.814615
vt 0.029090 0.815385
vt 0.029090 0.819620
vt 0.012567 0.823699
vt 0.015785 0.828678
vt 0.013958 0.831097
vt 0.009995 0.830567
vt 0.009348 0.826404
vt 0.300438 0.830354
vt 0.296420 0.825223
vt 0.298189 0.823593
vt 0.300438 0.825117
vt 0.294610 0.823593
vt 0.300108 0.822695
vt 0.292634 0.820716
vt 0.303444 0.815748
vt 0.300198 0.817498
vt 0.300122 0.816549
vt 0.301662 0.812669
vt 0.302299 0.812768
vt 0.285221 0.822234
vt 0.286049 0.816895
vt 0.290360 0.820841
vt 0.286384 0.823439
vt 0.290992 0.820661
vt 0.285984 0.815438
vt 0.299841 0.812869
vt 0.300108 0.813784
vt 0.299839 0.814529
vt 0.294218 0.814589
vt 0.297767 0.812669
vt 0.292634 0.822624
vt 0.287268 0.824431
vt 0.300687 0.824809
vt 0.302337 0.823640
vt 0.305853 0.823593
vt 0.300438 0.826632
vt 0.291881 0.830300
vt 0.288551 0.825147
vt 0.288795 0.824671
vt 0.291881 0.824431
vt 0.021859 0.830505
vt 0.020762 0.831578
vt 0.016599 0.830067
vt 0.016512 0.825303
vt 0.020171 0.823773
vt 0.021458 0.826544
vn 0.8501 -0.4345 -0.2976
vn 0.7522 0.6138 -0.2398
vn -0.3734 0.5790 -0.7248
vn -0.6514 -0.1494 0.7439
vn -0.6136 0.7304 0.3001
vn 0.2520 0.3991 0.8816
vn 0.9436 0.3300 -0.0254
vn 0.6787 -0.3952 0.6190
vn 0.1812 -0.9705 -0.1592
vn -0.9648 -0.0606 0.2558
vn -0.7723 -0.3821 -0.5075
vn -0.6531 -0.0593 -0.7549
vn 0.2103 -0.1607 -0.9643
vn -0.1253 -0.8783 -0.4615
vn -0.3417 -0.7304 0.5914
vn 0.4747 -0.2729 0.8367
vn 0.3888 0.9133 -0.1213
usemtl BigPalette
s 1
f 19/1/1 16/2/1 15/3/1 18/4/1
f 3/5/2 11/6/2 2/7/2
f 9/8/3 14/9/3 7/10/3 8/11/3
f 21/12/4 22/13/4 10/14/4 6/15/4 5/16/4
f 9/17/5 8/18/5 4/19/5 5/20/5 6/21/5 13/22/5
f 10/23/6 17/24/6 12/25/6 13/26/6 6/27/6
f 15/28/7 3/5/7 2/7/7 12/29/7 17/30/7 18/31/7
f 26/32/8 19/1/8 18/4/8 17/33/8
f 26/32/9 27/34/9 16/2/9 19/1/9
f 5/35/10 4/36/10 1/37/10 20/38/10 21/39/10
f 20/40/11 1/41/11 24/42/11 25/43/11
f 8/11/12 7/10/12 23/44/12 24/42/12 1/41/12 4/45/12
f 14/46/13 11/47/13 3/48/13 15/3/13 16/2/13 23/49/13 7/50/13
f 16/51/14 27/52/14 25/43/14 24/42/14 23/44/14
f 25/53/15 27/54/15 26/55/15 22/13/15 21/12/15 20/56/15
f 17/57/16 10/58/16 22/59/16 26/60/16
f 11/61/17 14/62/17 9/63/17 13/64/17 12/65/17 2/66/17
