# Blender v2.92.0 OBJ File: 'axe.blend'
# www.blender.org
mtllib aAxe.mtl
o Axe_Mesh
v -0.006992 0.000575 -0.007721
v 0.012703 0.009341 -0.015781
v -0.022489 0.685850 -0.015781
v 0.004389 0.693910 -0.007721
v -0.006992 0.000575 0.008999
v 0.021044 0.009265 0.008999
v -0.030568 0.685870 0.008999
v 0.004389 0.693910 0.008999
v -0.038763 0.455375 -0.015781
v -0.004373 0.455375 -0.007721
v -0.012433 0.455375 0.017059
v -0.046822 0.455375 0.008999
v -0.049123 0.294407 0.008999
v -0.014733 0.294407 0.017059
v -0.006673 0.294407 -0.007721
v -0.041063 0.294407 -0.015781
v -0.010549 0.176201 0.017059
v -0.044938 0.176201 0.008999
v -0.036878 0.176201 -0.015781
v -0.002489 0.176201 -0.007721
v 0.032574 0.050983 0.008999
v -0.025323 0.051514 0.017059
v -0.033382 0.051587 -0.007721
v 0.024515 0.051057 -0.015781
v -0.017760 0.007878 -0.007721
v -0.009442 0.008553 -0.015781
v 0.021044 0.009265 -0.007721
v 0.010842 0.001210 -0.007721
v -0.030568 0.685870 -0.007721
v -0.021941 0.693910 -0.007721
v 0.011882 0.685870 -0.007721
v 0.003800 0.685850 -0.015781
v -0.009442 0.008553 0.017059
v -0.017760 0.007878 0.008999
v 0.012703 0.009341 0.017059
v 0.010842 0.001210 0.008999
v -0.022489 0.685850 0.017059
v -0.021941 0.693910 0.008999
v 0.003800 0.685850 0.017059
v 0.011882 0.685870 0.008999
v -0.046822 0.455375 -0.007721
v -0.012433 0.455375 -0.015781
v -0.004373 0.455375 0.008999
v -0.038763 0.455375 0.017059
v -0.041063 0.294407 0.017059
v -0.006673 0.294407 0.008999
v -0.014733 0.294407 -0.015781
v -0.049123 0.294407 -0.007721
v -0.002489 0.176201 0.008999
v -0.036878 0.176201 0.017059
v -0.044938 0.176201 -0.007721
v -0.010549 0.176201 -0.015781
v 0.024515 0.051057 0.017059
v -0.033382 0.051587 0.008999
v -0.025323 0.051514 -0.015781
v 0.032574 0.050983 -0.007721
v -0.051320 0.563808 -0.017062
v 0.154317 0.522670 -0.003425
v -0.046131 0.665461 -0.017062
v 0.174803 0.648303 -0.003425
v -0.051320 0.563808 0.017062
v 0.154317 0.522670 0.003425
v -0.046131 0.665461 0.017062
v 0.174803 0.648303 0.003425
v 0.019944 0.663194 -0.019856
v 0.012373 0.555090 -0.019856
v 0.012373 0.555090 0.019856
v 0.019944 0.663194 0.019856
v 0.055379 0.653117 0.008298
v 0.046659 0.552504 0.006590
v 0.046659 0.552504 -0.006590
v 0.055379 0.653117 -0.008298
v 0.177845 0.596545 0.003425
v 0.052632 0.621419 0.008298
v 0.017559 0.629135 0.019856
v -0.051038 0.638270 0.017062
v -0.051038 0.638270 -0.017062
v 0.017559 0.629135 -0.019856
v 0.052632 0.621419 -0.008298
v 0.177845 0.596545 -0.003425
v 0.170278 0.557745 0.003425
v 0.049593 0.586353 0.006590
v 0.014920 0.591459 0.019856
v -0.050832 0.599320 0.017062
v -0.050832 0.599320 -0.017062
v 0.014920 0.591459 -0.019856
v 0.049593 0.586353 -0.006590
v 0.170278 0.557745 -0.003425
v 0.159203 0.522670 0.000000
v -0.059932 0.563808 0.000000
v 0.179689 0.648303 0.000000
v -0.054743 0.665461 0.000000
v 0.012373 0.555090 0.000000
v 0.019944 0.663194 0.000000
v 0.055379 0.653117 0.000000
v 0.046659 0.552504 0.000000
v 0.182731 0.596545 0.000000
v -0.059650 0.638270 0.000000
v 0.175164 0.557745 0.000000
v -0.059444 0.599320 0.000000
vt 0.046329 0.664245
vt 0.047531 0.665412
vt 0.046291 0.664982
vt 0.046290 0.662930
vt 0.047387 0.661583
vt 0.047706 0.662974
vt 0.068089 0.663757
vt 0.068598 0.664225
vt 0.068104 0.664227
vt 0.046242 0.665356
vt 0.047499 0.665737
vt 0.046093 0.665899
vt 0.068798 0.663014
vt 0.068049 0.662550
vt 0.068772 0.662549
vt 0.067015 0.663474
vt 0.059928 0.663601
vt 0.067005 0.662956
vt 0.059945 0.663949
vt 0.067038 0.663825
vt 0.059993 0.664754
vt 0.059942 0.661934
vt 0.067016 0.662605
vt 0.059922 0.662741
vt 0.060010 0.665104
vt 0.067133 0.664980
vt 0.060020 0.665621
vt 0.055021 0.663689
vt 0.059918 0.663089
vt 0.055025 0.664039
vt 0.055030 0.664850
vt 0.054980 0.662015
vt 0.055003 0.662827
vt 0.055034 0.665201
vt 0.055043 0.665717
vt 0.051417 0.663756
vt 0.055012 0.663177
vt 0.051405 0.664104
vt 0.051358 0.664919
vt 0.051316 0.662089
vt 0.051387 0.662896
vt 0.051346 0.665272
vt 0.051380 0.665786
vt 0.047780 0.663771
vt 0.051409 0.663243
vt 0.047739 0.664096
vt 0.047458 0.666238
vt 0.046366 0.663864
vt 0.047763 0.663300
vt 0.067699 0.663712
vt 0.067967 0.663428
vt 0.068694 0.663403
vt 0.069006 0.663705
vt 0.068582 0.663765
vt 0.067985 0.663367
vt 0.067698 0.663074
vt 0.068073 0.663022
vt 0.069140 0.663074
vt 0.068850 0.663380
vt 0.067978 0.664563
vt 0.067695 0.664271
vt 0.068998 0.664286
vt 0.068703 0.664577
vt 0.067695 0.662505
vt 0.067957 0.662216
vt 0.068822 0.662171
vt 0.069140 0.662482
vt 0.067109 0.664631
vt 0.046165 0.662200
vt 0.047325 0.661230
vt 0.067068 0.661445
vt 0.067057 0.661796
vt 0.059946 0.661583
vt 0.054971 0.661664
vt 0.051297 0.661734
vt 0.046353 0.663303
vt 0.220660 0.665910
vt 0.222519 0.664877
vt 0.222565 0.665955
vt 0.204473 0.663211
vt 0.206339 0.664231
vt 0.204381 0.664260
vt 0.212454 0.663381
vt 0.214342 0.663905
vt 0.212196 0.663881
vt 0.226915 0.666399
vt 0.227240 0.665313
vt 0.227092 0.666389
vt 0.219081 0.665444
vt 0.215562 0.665622
vt 0.219224 0.665342
vt 0.220480 0.662919
vt 0.220445 0.663729
vt 0.219909 0.662946
vt 0.222426 0.662757
vt 0.223553 0.662930
vt 0.222472 0.663764
vt 0.206378 0.663154
vt 0.207443 0.664191
vt 0.214349 0.663320
vt 0.215358 0.663722
vt 0.214480 0.665973
vt 0.212531 0.665909
vt 0.214474 0.665388
vt 0.215559 0.665377
vt 0.227323 0.664159
vt 0.223581 0.663870
vt 0.207468 0.663190
vt 0.211057 0.663765
vt 0.218649 0.663846
vt 0.215356 0.663917
vt 0.206299 0.665345
vt 0.206259 0.666352
vt 0.204273 0.665393
vt 0.227074 0.662658
vt 0.227497 0.664141
vt 0.220561 0.664862
vt 0.219888 0.663768
vt 0.207408 0.665232
vt 0.207386 0.666172
vt 0.223623 0.664910
vt 0.211147 0.664919
vt 0.227416 0.665301
vt 0.219995 0.664917
vt 0.223655 0.665911
vt 0.212442 0.664388
vt 0.211232 0.663776
vt 0.210902 0.662690
vt 0.215557 0.665133
vt 0.203715 0.665358
vt 0.203741 0.666179
vt 0.215353 0.664111
vt 0.212273 0.665409
vt 0.212521 0.664904
vt 0.218786 0.663955
vt 0.218646 0.664060
vt 0.211084 0.666440
vt 0.210908 0.666421
vt 0.211321 0.664935
vt 0.203815 0.664209
vt 0.203908 0.663157
vt 0.067142 0.665496
vt 0.046063 0.661831
vt 0.210725 0.662681
vt 0.204312 0.666202
vt 0.227249 0.662638
vt 0.220095 0.665967
vt 0.214336 0.664490
vt 0.219079 0.665242
vt 0.214468 0.664803
vn -0.0000 0.0000 -1.0000
vn 0.0000 -0.0000 1.0000
vn 0.0356 -0.9994 -0.0000
vn 0.9639 -0.2664 0.0000
vn 0.0000 1.0000 0.0000
vn -0.9975 0.0703 0.0000
vn 0.9975 -0.0703 0.0000
vn -0.9999 0.0143 0.0000
vn 0.9999 -0.0143 0.0000
vn -0.9994 -0.0354 0.0000
vn 0.9994 0.0354 0.0000
vn -0.9957 -0.0923 0.0000
vn 0.9630 0.2696 0.0000
vn -0.9417 -0.3366 0.0000
vn -0.4709 -0.6943 -0.5442
vn 0.5199 -0.6584 -0.5442
vn -0.5624 0.6035 -0.5652
vn 0.5894 0.5493 -0.5923
vn -0.4709 -0.6943 0.5442
vn 0.5199 -0.6584 0.5442
vn -0.5624 0.6035 0.5652
vn 0.5894 0.5493 0.5923
vn -0.6852 -0.2533 -0.6829
vn 0.0000 0.7071 -0.7071
vn 0.7060 -0.0497 -0.7064
vn 0.7057 -0.0497 -0.7068
vn 0.7062 -0.0497 -0.7062
vn 0.0251 -0.7067 -0.7071
vn 0.0252 -0.7067 -0.7071
vn 0.0251 -0.7067 0.7071
vn 0.0252 -0.7067 0.7071
vn 0.6925 -0.1961 0.6943
vn 0.0000 0.7071 0.7071
vn -0.7059 0.0498 0.7066
vn -0.7055 0.0498 0.7069
vn -0.7062 0.0499 0.7062
vn 0.6197 -0.7848 -0.0000
vn -0.5613 -0.8276 -0.0000
vn 0.7316 0.6818 0.0000
vn -0.6818 0.7316 0.0000
vn -0.7057 0.0498 -0.7068
vn -0.7057 0.0498 -0.7067
vn -0.7054 0.0498 -0.7071
vn 0.7071 -0.0101 -0.7071
vn 0.7058 -0.0497 0.7067
vn 0.7060 -0.0498 0.7065
vn 0.7054 -0.0497 0.7071
vn -0.7071 0.0101 0.7071
vn -0.7069 -0.0250 0.7069
vn 0.7071 -0.0101 0.7071
vn 0.7069 0.0250 -0.7069
vn -0.7071 0.0101 -0.7071
vn 0.7069 0.0250 0.7069
vn -0.7056 -0.0654 0.7056
vn -0.7059 -0.0654 0.7053
vn -0.7069 -0.0250 -0.7069
vn 0.6942 0.1945 -0.6930
vn 0.6939 0.1943 -0.6934
vn 0.6945 0.1946 -0.6927
vn 0.6939 0.1944 0.6933
vn 0.6943 0.1944 0.6930
vn 0.6936 0.1943 0.6936
vn -0.6642 -0.2455 0.7061
vn -0.7059 -0.0655 -0.7053
vn -0.7059 -0.0655 -0.7052
vn -0.7056 -0.0654 -0.7056
vn 0.6809 -0.1928 -0.7065
vn -0.0432 0.0026 -0.9991
vn -0.0427 0.0013 -0.9991
vn -0.0434 0.0030 -0.9991
vn -0.0433 0.0027 0.9991
vn -0.0427 0.0013 0.9991
vn -0.0418 0.0021 0.9991
vn -0.1195 -0.9910 -0.0603
vn 0.5553 -0.2527 -0.7923
vn 0.0427 0.9972 -0.0609
vn -0.8814 0.1590 -0.4449
vn 0.3045 -0.0213 -0.9523
vn 0.3046 -0.0215 -0.9522
vn 0.3059 -0.0255 -0.9517
vn 0.3585 -0.0309 0.9330
vn 0.3563 -0.0280 0.9339
vn 0.3540 -0.0248 0.9349
vn -0.0752 -0.9972 0.0000
vn 0.0343 0.9994 0.0000
vn 0.2735 0.9619 0.0000
vn 0.0403 0.0013 -0.9992
vn 0.0388 -0.0020 -0.9992
vn 0.0382 -0.0033 -0.9993
vn 0.0260 -0.0097 0.9996
vn 0.0260 -0.0031 0.9997
vn 0.0252 -0.0043 0.9997
vn -0.2671 -0.9637 -0.0000
vn -0.0402 0.0062 -0.9992
vn -0.0416 0.0066 -0.9991
vn -0.0411 0.0008 -0.9992
vn -0.0411 0.0007 0.9992
vn -0.0417 0.0066 0.9991
vn -0.0402 0.0062 0.9992
vn 0.5736 0.0337 -0.8184
vn -0.8927 -0.0047 -0.4506
vn 0.3085 -0.0222 -0.9510
vn 0.3086 -0.0216 -0.9509
vn 0.3085 -0.0223 0.9510
vn 0.3047 -0.0216 0.9522
vn 0.3058 -0.0256 0.9517
vn 0.0287 -0.0511 -0.9983
vn 0.0388 -0.0020 0.9992
vn 0.0403 0.0013 0.9992
vn 0.0382 -0.0033 0.9993
vn -0.0418 0.0022 -0.9991
vn 0.5704 -0.1112 -0.8138
vn 0.3466 -0.0756 0.9350
vn 0.0251 -0.0049 0.9997
vn -0.8927 0.0123 -0.4506
vn 0.3563 -0.0280 -0.9339
vn 0.3585 -0.0309 -0.9330
vn 0.3540 -0.0248 -0.9349
vn 0.0260 -0.0031 -0.9997
vn 0.0260 -0.0097 -0.9996
vn 0.0252 -0.0042 -0.9997
vn -0.1195 -0.9910 0.0603
vn 0.5553 -0.2527 0.7923
vn 0.0387 0.9993 0.0000
vn -0.8814 0.1590 0.4449
vn 0.0303 0.9994 -0.0153
vn -0.2407 -0.9079 -0.3433
vn 0.5736 0.0337 0.8184
vn -0.8927 -0.0047 0.4506
vn 0.5704 -0.1112 0.8138
vn -0.8927 0.0123 0.4506
vn -0.6659 -0.2380 -0.7071
vn 0.7054 -0.0497 -0.7071
vn 0.6816 -0.1884 0.7071
vn -0.7054 0.0497 0.7071
vn -0.7062 0.0498 -0.7062
vn 0.7062 -0.0498 0.7062
vn 0.6936 0.1942 -0.6936
vn 0.6945 0.1945 0.6927
vn -0.6866 -0.2454 0.6843
vn 0.6931 -0.1916 -0.6949
vn -0.0434 0.0030 0.9991
vn -0.1356 -0.9908 -0.0000
vn 0.3586 -0.0311 0.9330
vn 0.0303 0.9994 0.0153
vn 0.0409 0.0024 -0.9992
vn 0.0261 -0.0119 0.9996
vn -0.2407 -0.9079 0.3433
vn -0.0420 0.0076 -0.9991
vn -0.0420 0.0076 0.9991
vn 0.3466 -0.0756 -0.9350
vn 0.3045 -0.0213 0.9523
vn 0.0251 -0.0049 -0.9997
vn 0.0409 0.0024 0.9992
vn 0.3086 -0.0216 0.9509
vn 0.0287 -0.0511 0.9983
vn 0.3586 -0.0311 -0.9330
vn 0.0261 -0.0119 -0.9996
vn 0.0427 0.9972 0.0609
usemtl BigPalette
s 1
f 26/1/1 24/2/1 2/3/1
f 33/4/2 53/5/2 22/6/2
f 1/7/3 36/8/3 5/9/3
f 27/10/4 56/11/4 6/12/4
f 4/13/5 38/14/5 8/15/5
f 29/16/6 41/17/6 7/18/6
f 9/19/1 3/20/1 42/21/1
f 11/22/2 37/23/2 44/24/2
f 10/25/7 31/26/7 43/27/7
f 41/17/8 48/28/8 12/29/8
f 16/30/1 9/19/1 47/31/1
f 14/32/2 11/22/2 45/33/2
f 15/34/9 10/25/9 46/35/9
f 48/28/10 51/36/10 13/37/10
f 19/38/1 47/31/1 52/39/1
f 17/40/2 14/32/2 50/41/2
f 20/42/11 15/34/11 49/43/11
f 51/36/12 23/44/12 18/45/12
f 55/46/1 52/39/1 24/2/1
f 53/5/2 17/40/2 22/6/2
f 56/11/13 20/42/13 21/47/13
f 23/44/14 25/48/14 54/49/14
f 1/7/15 25/50/15 26/51/15
f 2/52/16 27/53/16 28/54/16
f 3/55/17 29/56/17 30/57/17
f 4/13/18 31/58/18 32/59/18
f 5/9/19 33/60/19 34/61/19
f 6/62/20 35/63/20 36/8/20
f 7/64/21 37/65/21 38/14/21
f 8/15/22 39/66/22 40/67/22
f 26/1/23 23/44/23 55/46/23
f 3/55/24 4/13/24 32/59/24
f 32/68/25 10/25/26 42/21/27
f 2/52/28 1/7/28 26/51/29
f 33/60/30 36/8/30 35/63/31
f 35/69/32 21/70/32 53/5/32
f 39/66/33 38/14/33 37/65/33
f 37/23/34 12/29/35 44/24/36
f 28/54/37 6/62/37 36/8/37
f 5/9/38 25/50/38 1/7/38
f 31/58/39 8/15/39 40/67/39
f 30/57/40 7/64/40 38/14/40
f 9/19/41 29/16/42 3/20/43
f 42/21/44 15/34/44 47/31/44
f 11/22/45 40/71/46 39/72/47
f 44/24/48 13/37/48 45/33/48
f 45/33/49 18/45/49 50/41/49
f 14/32/50 43/73/50 11/22/50
f 47/31/51 20/42/51 52/39/51
f 16/30/52 41/17/52 9/19/52
f 17/40/53 46/74/53 14/32/53
f 50/41/54 54/49/55 22/6/55
f 19/38/56 48/28/56 16/30/56
f 52/39/57 56/11/58 24/2/59
f 53/5/60 49/75/61 17/40/62
f 22/6/63 34/76/63 33/4/63
f 55/46/64 51/36/65 19/38/66
f 24/2/67 27/10/67 2/3/67
f 57/77/68 86/78/69 66/79/70
f 61/80/71 83/81/72 84/82/73
f 57/83/74 93/84/74 90/85/74
f 58/86/75 88/87/75 89/88/75
f 60/89/76 72/90/76 91/91/76
f 59/92/77 77/93/77 92/94/77
f 65/95/78 72/96/79 78/97/80
f 67/98/81 82/99/82 83/81/83
f 66/100/84 71/101/84 93/84/84
f 65/102/85 59/103/85 94/104/85
f 72/90/86 94/104/86 95/105/86
f 72/96/87 80/106/88 79/107/89
f 70/108/90 81/109/91 82/99/92
f 71/101/93 58/110/93 96/111/93
f 77/93/94 65/95/95 78/97/96
f 75/112/97 68/113/98 76/114/99
f 80/106/100 60/115/100 97/116/100
f 77/93/101 85/117/101 98/118/101
f 79/107/102 86/78/103 78/97/80
f 74/119/104 69/120/105 75/112/106
f 80/106/107 87/121/107 79/107/107
f 73/122/108 69/120/109 74/119/110
f 85/117/111 78/97/96 86/78/69
f 83/81/72 75/112/97 84/82/73
f 88/87/112 80/106/112 99/123/112
f 82/99/113 74/119/113 83/81/113
f 81/109/91 73/122/114 82/99/92
f 85/117/115 57/77/115 100/124/115
f 87/121/116 66/79/117 86/78/118
f 88/87/119 71/125/120 87/121/121
f 93/84/122 61/126/122 90/85/122
f 99/127/123 81/109/123 89/128/123
f 95/105/124 69/129/124 91/91/124
f 98/130/125 76/114/125 92/131/125
f 96/111/84 70/132/84 93/84/84
f 92/133/126 63/134/126 94/104/126
f 94/104/86 69/129/86 95/105/86
f 89/135/127 62/136/127 96/111/127
f 91/137/128 64/138/128 97/139/128
f 100/140/129 84/82/129 98/130/129
f 97/139/130 73/122/130 99/127/130
f 90/141/131 61/80/131 100/140/131
f 26/1/1 55/46/1 24/2/1
f 33/4/2 35/69/2 53/5/2
f 1/7/3 28/54/3 36/8/3
f 56/11/4 21/47/4 6/12/4
f 4/13/5 30/57/5 38/14/5
f 41/17/6 12/29/6 7/18/6
f 3/20/1 32/68/1 42/21/1
f 11/22/2 39/72/2 37/23/2
f 31/26/7 40/142/7 43/27/7
f 48/28/8 13/37/8 12/29/8
f 9/19/1 42/21/1 47/31/1
f 11/22/2 44/24/2 45/33/2
f 10/25/9 43/27/9 46/35/9
f 51/36/10 18/45/10 13/37/10
f 19/38/1 16/30/1 47/31/1
f 14/32/2 45/33/2 50/41/2
f 15/34/11 46/35/11 49/43/11
f 23/44/12 54/49/12 18/45/12
f 55/46/1 19/38/1 52/39/1
f 17/40/2 50/41/2 22/6/2
f 20/42/13 49/43/13 21/47/13
f 25/48/14 34/76/14 54/49/14
f 26/1/132 25/48/132 23/44/132
f 3/55/24 30/57/24 4/13/24
f 32/68/25 31/26/133 10/25/26
f 2/52/28 28/54/28 1/7/28
f 33/60/30 5/9/30 36/8/30
f 35/69/134 6/143/134 21/70/134
f 39/66/33 8/15/33 38/14/33
f 37/23/34 7/18/135 12/29/35
f 28/54/37 27/53/37 6/62/37
f 5/9/38 34/61/38 25/50/38
f 31/58/39 4/13/39 8/15/39
f 30/57/40 29/56/40 7/64/40
f 9/19/41 41/17/136 29/16/42
f 42/21/44 10/25/44 15/34/44
f 11/22/45 43/73/137 40/71/46
f 44/24/48 12/29/48 13/37/48
f 45/33/49 13/37/49 18/45/49
f 14/32/50 46/74/50 43/73/50
f 47/31/51 15/34/51 20/42/51
f 16/30/52 48/28/52 41/17/52
f 17/40/53 49/75/53 46/74/53
f 50/41/54 18/45/54 54/49/55
f 19/38/56 51/36/56 48/28/56
f 52/39/57 20/42/138 56/11/58
f 53/5/60 21/70/139 49/75/61
f 22/6/140 54/49/140 34/76/140
f 55/46/64 23/44/64 51/36/65
f 24/2/141 56/11/141 27/10/141
f 57/77/68 85/117/111 86/78/69
f 61/80/71 67/98/142 83/81/72
f 57/83/143 66/100/143 93/84/143
f 88/87/75 99/123/75 89/88/75
f 72/90/124 95/105/124 91/91/124
f 77/93/77 98/118/77 92/94/77
f 72/96/79 79/107/102 78/97/80
f 67/98/81 70/108/144 82/99/82
f 71/101/84 96/111/84 93/84/84
f 59/103/145 92/133/145 94/104/145
f 72/90/86 65/102/86 94/104/86
f 72/96/87 60/115/146 80/106/88
f 70/108/90 62/144/147 81/109/91
f 58/110/148 89/135/148 96/111/148
f 77/93/94 59/92/149 65/95/95
f 68/113/98 63/145/150 76/114/99
f 60/115/100 91/146/100 97/116/100
f 85/117/101 100/124/101 98/118/101
f 79/107/151 87/121/151 86/78/151
f 69/120/105 68/113/152 75/112/106
f 80/106/153 88/87/119 87/121/121
f 73/122/108 64/138/154 69/120/109
f 85/117/111 77/93/94 78/97/96
f 75/112/97 76/114/99 84/82/73
f 80/106/112 97/116/112 99/123/112
f 74/119/104 75/112/106 83/81/155
f 73/122/156 74/119/156 82/99/156
f 57/77/115 90/147/115 100/124/115
f 87/121/116 71/125/157 66/79/117
f 88/87/119 58/86/158 71/125/120
f 93/84/143 67/148/143 61/126/143
f 81/109/123 62/144/123 89/128/123
f 69/129/159 64/149/159 91/91/159
f 76/114/125 63/145/125 92/131/125
f 70/132/84 67/148/84 93/84/84
f 63/134/85 68/150/85 94/104/85
f 94/104/86 68/150/86 69/129/86
f 62/136/93 70/132/93 96/111/93
f 64/138/128 73/122/128 97/139/128
f 84/82/129 76/114/129 98/130/129
f 73/122/130 81/109/130 99/127/130
f 61/80/131 84/82/131 100/140/131
