# Blender v2.92.0 OBJ File: 'rock0.blend'
# www.blender.org
mtllib rock0.mtl
o Icosphere
v 0.082843 0.362701 0.819236
v -0.832494 0.344216 0.475036
v -0.663380 0.147641 -0.578312
v 0.174402 0.387994 -0.753982
v 0.730352 0.221853 -0.233925
v -0.021077 0.886594 0.150173
v 0.706589 -0.012921 0.136297
v 0.886423 -0.000415 -0.496989
v -0.238899 -0.000415 1.025341
v 0.247544 -0.003776 0.736791
v -1.081270 -0.000415 0.005150
v -0.858777 -0.000415 0.741759
v -0.608873 -0.002558 -0.950835
v -0.864850 -0.000415 -0.672983
v 0.671779 -0.000415 -1.024293
v -0.161930 -0.003005 -1.162856
v 0.353331 0.227259 0.292708
v -0.271236 0.425646 0.752377
v -0.886549 0.369736 -0.018380
v -0.153759 0.416976 -0.687442
v 0.659149 0.454657 -0.536684
v 0.069310 0.597861 0.447690
v 0.368790 0.633371 -0.058861
v -0.341603 0.552266 0.221849
v -0.509621 0.656755 -0.357871
v 0.163659 0.754626 -0.559522
vt 0.795051 0.750368
vt 0.793443 0.750368
vt 0.794246 0.751761
vt 0.798268 0.750368
vt 0.796660 0.750368
vt 0.797464 0.751761
vt 0.785400 0.750368
vt 0.783791 0.750368
vt 0.784596 0.751761
vt 0.788617 0.750368
vt 0.787008 0.750368
vt 0.787808 0.751736
vt 0.791834 0.750368
vt 0.790226 0.750368
vt 0.791014 0.751750
vt 0.789401 0.751748
vt 0.790331 0.752895
vt 0.786204 0.751761
vt 0.787072 0.752902
vt 0.782987 0.751761
vt 0.783647 0.752942
vt 0.782183 0.750368
vt 0.795856 0.751761
vt 0.796604 0.752872
vt 0.792628 0.751765
vt 0.793543 0.752887
vt 0.791030 0.748975
vt 0.789421 0.748975
vt 0.787813 0.748975
vt 0.786204 0.748975
vt 0.784596 0.748975
vt 0.782987 0.748975
vt 0.797464 0.748975
vt 0.795855 0.748975
vt 0.794247 0.748975
vt 0.792638 0.748975
vt 0.781379 0.748975
vn 0.8144 0.5033 0.2889
vn -0.2619 0.9303 0.2568
vn -0.7625 0.4369 -0.4772
vn -0.1371 0.4610 -0.8767
vn 0.7776 0.5734 0.2580
vn 0.5384 0.8425 -0.0165
vn 0.5181 0.8553 -0.0051
vn 0.3123 0.4523 -0.8354
vn -0.2073 0.9507 -0.2307
vn -0.3101 0.5776 -0.7551
vn -0.4131 0.4640 -0.7836
vn -0.6511 0.6913 0.3133
vn -0.4125 0.8682 0.2760
vn -0.3505 0.9325 0.0866
vn -0.4428 0.5725 0.6901
vn -0.2443 0.9354 0.2557
vn 0.0496 0.8448 0.5329
vn 0.6422 0.6384 0.4244
vn 0.7792 0.3930 0.4882
vn 0.7379 0.4255 0.5239
vn 0.8808 0.4522 0.1405
vn 0.8510 0.3948 -0.3464
vn 0.1996 0.7189 -0.6658
vn -0.0677 0.7483 -0.6599
vn -0.2977 0.7180 -0.6292
vn -0.4943 0.7787 -0.3863
vn -0.3710 0.8030 -0.4664
vn -0.8582 0.4341 -0.2739
vn -0.8754 0.4682 0.1201
vn -0.4283 0.5733 0.6985
vn -0.3644 0.4826 0.7964
vn -0.0640 0.5349 0.8425
vn 0.8757 0.3103 0.3700
vn 0.6290 0.6181 0.4714
vn 0.6299 0.6370 0.4444
vn 0.1203 0.6662 -0.7360
vn -0.0028 -1.0000 -0.0010
vn -0.4182 0.8196 -0.3916
vn -0.9177 0.2845 0.2772
vn 0.5100 0.0359 0.8594
vn 0.9081 0.3248 0.2643
usemtl mat_world
s off
f 1/1/1 17/2/1 22/3/1
f 2/4/2 18/5/2 24/6/2
f 3/7/3 19/8/3 25/9/3
f 4/10/4 20/11/4 26/12/4
f 5/13/5 21/14/5 23/15/5
f 23/15/6 26/16/6 6/17/6
f 23/15/7 21/14/7 26/16/7
f 21/14/8 4/10/8 26/16/8
f 26/12/9 25/18/9 6/19/9
f 26/12/10 20/11/10 25/18/10
f 20/11/11 3/7/11 25/18/11
f 25/9/12 24/20/12 6/21/12
f 25/9/13 19/8/13 24/20/13
f 19/8/14 2/22/14 24/20/14
f 24/6/15 22/23/15 6/24/15
f 24/6/16 18/5/16 22/23/16
f 18/5/17 1/1/17 22/23/17
f 22/3/18 23/25/18 6/26/18
f 22/3/19 17/2/19 23/25/19
f 17/2/20 5/13/20 23/25/20
f 8/27/21 21/14/21 5/13/21
f 8/27/22 15/28/22 21/14/22
f 15/28/23 4/10/23 21/14/23
f 16/29/24 20/11/24 4/10/24
f 16/29/25 13/30/25 20/11/25
f 13/30/26 3/7/26 20/11/26
f 14/31/27 19/8/27 3/7/27
f 14/31/28 11/32/28 19/8/28
f 11/32/29 2/22/29 19/8/29
f 12/33/30 18/5/30 2/4/30
f 12/33/31 9/34/31 18/5/31
f 9/34/32 1/1/32 18/5/32
f 10/35/33 17/2/33 1/1/33
f 10/35/34 7/36/34 17/2/34
f 7/36/35 5/13/35 17/2/35
f 15/28/36 16/29/36 4/10/36
f 8/27/37 7/36/37 10/35/37 9/34/37 12/33/37 11/32/37 14/31/37 13/30/37 16/29/37 15/28/37
f 13/30/38 14/31/38 3/7/38
f 11/32/39 12/37/39 2/22/39
f 9/34/40 10/35/40 1/1/40
f 7/36/41 8/27/41 5/13/41
